<?xml version="1.0" encoding="UTF-8" standalone="no"?>
<!-- Created with Inkscape (http://www.inkscape.org/) -->

<svg
   xmlns:dc="http://purl.org/dc/elements/1.1/"
   xmlns:cc="http://creativecommons.org/ns#"
   xmlns:rdf="http://www.w3.org/1999/02/22-rdf-syntax-ns#"
   xmlns:svg="http://www.w3.org/2000/svg"
   xmlns="http://www.w3.org/2000/svg"
   xmlns:sodipodi="http://sodipodi.sourceforge.net/DTD/sodipodi-0.dtd"
   xmlns:inkscape="http://www.inkscape.org/namespaces/inkscape"
   width="210mm"
   height="297mm"
   viewBox="0 0 744.09448819 1052.3622047"
   id="svg2"
   version="1.1"
   inkscape:version="0.91 r13725"
   sodipodi:docname="drawing.svg">
  <defs
     id="defs4" />
  <sodipodi:namedview
     id="base"
     pagecolor="#ffffff"
     bordercolor="#666666"
     borderopacity="1.0"
     inkscape:pageopacity="0.0"
     inkscape:pageshadow="2"
     inkscape:zoom="0.7"
     inkscape:cx="437.5697"
     inkscape:cy="647.3718"
     inkscape:document-units="px"
     inkscape:current-layer="svg2"
     showgrid="false"
     inkscape:window-width="1366"
     inkscape:window-height="745"
     inkscape:window-x="-8"
     inkscape:window-y="-8"
     inkscape:window-maximized="1" />
  <metadata
     id="metadata7">
    <rdf:RDF>
      <cc:Work
         rdf:about="">
        <dc:format>image/svg+xml</dc:format>
        <dc:type
           rdf:resource="http://purl.org/dc/dcmitype/StillImage" />
        <dc:title />
      </cc:Work>
    </rdf:RDF>
  </metadata>
  <path
     style="fill:none;fill-rule:evenodd;stroke:#000000;stroke-width:1px;stroke-linecap:butt;stroke-linejoin:miter;stroke-opacity:1"
     d="M 222.85715,672.3622 C -205.71427,826.64791 404.6658,816.61512 437.14287,635.21935 478.57405,403.81171 319.85441,462.57149 131.28298,165.42863 8.4258386,88.285772 94.285717,726.64791 222.85715,672.3622 Z"
     id="path3336"
     inkscape:connector-curvature="0"
     sodipodi:nodetypes="cscc" />
  <path
     style="fill:none;fill-rule:evenodd;stroke:#000000;stroke-width:1px;stroke-linecap:butt;stroke-linejoin:miter;stroke-opacity:1"
     d="M 188.11647,69.855523 C 254.90532,207.38437 136.69122,434.76772 260.00001,532.36222 439.4242,674.37005 234.28571,1003.7908 271.42856,1018.0765"
     id="path3334"
     inkscape:connector-curvature="0"
     sodipodi:nodetypes="ccc" />
  <path
     style="fill:none;fill-rule:evenodd;stroke:#000000;stroke-width:1px;stroke-linecap:butt;stroke-linejoin:miter;stroke-opacity:1"
     d="m 65.71429,426.64792 c 2.85714,-54.28571 80,51.42857 105.71428,100 25.71429,48.57143 113.99526,-28.73157 97.14286,-74.28572"
     id="path3348"
     inkscape:connector-curvature="0"
     sodipodi:nodetypes="csc" />
  <path
     style="fill:none;fill-rule:evenodd;stroke:#000000;stroke-width:1px;stroke-linecap:butt;stroke-linejoin:miter;stroke-opacity:1"
     d="m 520,63.790776 c -74.28571,-105.71429 60.65496,199.561954 94.28571,297.142854 31.63623,91.79374 -37.14285,565.71429 -20,514.28571 C 611.42857,823.79077 712.85715,349.50507 700,389.50506 673.71241,471.28865 677.14285,192.3622 657.14285,235.21934 637.14285,278.07649 597.14286,106.64789 520,63.790776 Z"
     id="path3352"
     inkscape:connector-curvature="0"
     sodipodi:nodetypes="cssssc" />
  <path
     style="fill:none;fill-rule:evenodd;stroke:#000000;stroke-width:1px;stroke-linecap:butt;stroke-linejoin:miter;stroke-opacity:1"
     d="M 451.42857,963.79078 C 460,900.93363 477.14286,806.64792 448.57143,840.93363 c -28.57143,34.28572 -51.42857,120 -80,125.71429 -28.57143,5.71428 20,-125.71429 48.57143,-154.28572 28.57143,-28.57142 151.42857,-40 131.42857,40 -20,80 11.42857,168.5714 -22.85714,174.2857 -34.28571,5.7143 -82.85715,5.7143 -74.28572,-62.85712 z"
     id="path3349"
     inkscape:connector-curvature="0"
     sodipodi:nodetypes="csssssc" />
  <path
     style="fill:none;fill-rule:evenodd;stroke:#000000;stroke-width:1px;stroke-linecap:butt;stroke-linejoin:miter;stroke-opacity:1"
     d="m 702.85714,683.79078 c -20,-77.14286 -74.28571,-217.14286 -71.42857,-271.42858 2.85714,-54.28571 14.28572,-91.42857 -8.57143,-154.28571 C 600,195.21935 580,35.219348 580,35.219348"
     id="path3353"
     inkscape:connector-curvature="0"
     sodipodi:nodetypes="cssc" />
  <path
     style="fill:none;fill-rule:evenodd;stroke:#000000;stroke-width:1px;stroke-linecap:butt;stroke-linejoin:miter;stroke-opacity:1"
     d="M 380,805.21935 C 380,776.64792 462.85714,612.3622 370,523.79078 277.14286,435.21935 194.28571,366.64792 244.28571,260.93363"
     id="path3338"
     inkscape:connector-curvature="0" />
  <path
     style="fill:none;fill-rule:evenodd;stroke:#000000;stroke-width:1px;stroke-linecap:butt;stroke-linejoin:miter;stroke-opacity:1"
     d="m 400,1005.2193 c 4.28571,-41.42852 108.57143,-191.42852 108.57143,-135.71424 0,55.71429 75.71428,134.28574 75.71428,90"
     id="path3342"
     inkscape:connector-curvature="0" />
  <path
     style="fill:none;fill-rule:evenodd;stroke:#000000;stroke-width:1px;stroke-linecap:butt;stroke-linejoin:miter;stroke-opacity:1"
     d="m 157.14286,372.3622 c 34.28571,-30 -1.42857,-87.14285 22.85714,-67.14285 24.28571,20 20,72.85714 37.14286,78.57143 17.14285,5.71428 67.14285,-32.85715 68.57143,-10"
     id="path3344"
     inkscape:connector-curvature="0" />
  <path
     style="fill:none;fill-rule:evenodd;stroke:#000000;stroke-width:1px;stroke-linecap:butt;stroke-linejoin:miter;stroke-opacity:1"
     d="m 177.14286,443.79078 c 8.57143,-12.85715 40,-40 51.42857,-22.85715 11.42857,17.14286 95.71428,2.85715 90,-4.28571"
     id="path3346"
     inkscape:connector-curvature="0" />
</svg>
