<svg id="df948a4a-d589-4769-97e9-7d98a38541cc" data-name="Lager 1" xmlns="http://www.w3.org/2000/svg" width="1471.25mm" height="718.81mm" viewBox="0 0 4170.48 2037.58">
  <title>Simply Map</title>
  <path d="M3118.6,1086.21c-16-.3-38.81.11-52.87,2.44-6.24,1-24.05,4.06-16.13,9.25-18.32-5.14-37.81-12.62-14.06,4.28-3.2,3.44-43.16,3.25-29.81,4.28a95.06,95.06,0,0,0-29.06,0c-0.51,4.23-.36,3.09,6.38,5.41-26.8,7.06-53.86-11.27-80.81-9.47q30.74,9.7,8.44,7.88-21.15-1.22,6.75,4.5c-16.69-.73-33.19-5.26-49.5.91,8-12-24.63-17.18-15.56-8.53-16.51-3.19-34.23.31-50.62,2.25q17.22,4.26,34.13,9.66c-19.57-3-38.54-10.57-58.69-6.53,4.1,4.33,4.78,4.31,5.44,9-4.62,1.31-42.36-4.54-21.94,5.88-16-10.36-40.78,2-56.25,6.06,9.48,9.87,32.34,2.61,43.5,2.94-15.82-1.23-41.6,15.79-60.94,18-16,1.83-35.19,1.53-49.12,10.34,22,8.2,31.6,8.75,41.63,6.06-16.56,4.66,35,.11,40.5,3.38q-9,.39-0.75,3.59a108.3,108.3,0,0,0-33.94-.44,104.23,104.23,0,0,0,34.13,1.56c-20.68,3.95-41.85-5-62.25,1.81,5.36,4,13.79,3.1,19.13,1.13q-17,9,21.38,4.5c-40.05,8.22,6.63,9.16,18.38,11-23.35-8.83,4.64-3.05,13.39-4a236.17,236.17,0,0,1,43-.12c27.4,2.48,43,18.59,67.12,24.55q-11.16.3-.19,1.13c-5.79,2-6.42,3.22-12.94,3.81,6.45-1.09,25.4,2.17,14.25,7,12.24,2.67,14.89,5.13,5.44,7.63,12.4,1.83,16.07,9.62,1.13,9,15,1.56-8.32,10.11,2.17,13.83q8.08,6.39,17.89.14c-6.16-3.36,8.87-4.28,16.13-2.72,13.82-.82,1.78,10,18,10.13-14.35,3.43,2.27,4.79,4.13,5.41,0.88-.72-12.35,7.28,0,2.47-15.68,5.92-30.94-8.8-47.06-3.12,14.16,11.1,40,17.77,52.5,16.63-23,4.67,1.81,7.3.19,7.22-8.69-2.1-31.73,9.84-37.12,9.91,9.05,3.43,24,18.06,35.25,16.63-14.19-1.15-48.07-2.23-24.56,5.19-7.07-.78-21.16,10.11,7.13,12.59-41.37-2.4-3.63,10.09-4.09,21,0.26-6.2,21.87,5.42,15.9-9.77,4,14.25,20.86,9.7,2.86,8.67q-2.88,3.7,4.46,1.93c-15.49,3.17-27,1.47,1.13,3.59-25.19,2.45-15.8,8.69-6.94,8.09-2.57.37-12.19,4.58,3,3.38-13.82,1.5-2.29,2.26,4.5,2.25-13.47,6.6-.16,3.76,4.31,2.47-10,4.48,21.4,18.94,5.44,21.84,9.76,2.49,3.59,7.14,14.06,3.59-0.84,2.08,20.35,4.27,28.31-.22-1.73,1,11.68,4-3,10.56,18.2-2.17,9.39,8.76,19.31,8.78,8.69-9.25-8,1.5,14.81-2.94-2-3.07-8-5.54-11.25-6.06,17.23,4.17,15.25-10.47,20.25-16-12.25,2.67-10.67-9.72,2.63-9.91-3.66-2.37-5.83-3.13-9.94-4.72,11.06,0.2,15-4.25,17.06-5-3.88-2.12,13.27-14.81.38-18,10,1.2,15.17-17.46,15.75-17.09,7.52-2.45,32.87-12.88,35.63-11.47-2,.83-7.46,6.43-8.81,8.78q13.87-.25,3.56-3.16c10.18,2.8,75.58-20.77,62.81-39.16,35.59,23.82,89.61-12.1,124.31-21.59-19.33,2.06-64.1-10.86-69.94-14.41,6.57,3.22,11.31-8.91-9.19-13.72,33.26,2.69,62.29,26.21,85.5,22.94-0.68-6-3.69-12.64-1.31-13.28-3-.92-7.82-2.86-4.69-3.81-2.3-.47-22.74,3.79-6.37-2.94-14.26-4.28-52.79-2.51-24.56-9.44-6.19-5.93,15.26-6.91-12.56-20.47,10,7.51,28.55,5.29,39.94,4.94-46.31,5.14,20.85,8.24,24.19-2.47-13.11-5.05-22.33-7.16-25.69-7.66q13.35,1.49,4.69-3.81c8.94,2.73,28.62,8.18,37.31,1.34-8.2-2.5-3.44-2.4-4.5-17.78-9.51-3.76,11-11.57,14.16-18.11,2.82-5.8-40-10.16-45.47-10,4.5-6.3,16.4-12.64,6.94-13.94,9.3-.46,40.29-15.24,47.25-20.25-16.47-4.76-25-5.77-45.56-7.44,46.15-2.63,70.63-6,107.44-14.16-15.19-7.74-89.41-5.48-92.81-1.37-19.05.26-35.71,11.6-53.81,15.75q8-2.35,1.31-1.78c2.1-.8,32.78-16,25.2-19.19-17.73-7.4-44.84,8.29-63.08,8.84,7.5-1.45,23-2.56,28.31-8.56-31.33-1.45-63.3,9-94.5,3.16,2.47-.74,65.76-10.74,18.38-6.09,40.84-1.77,82.59,3.9,122.81-5.84a122.18,122.18,0,0,0-52.31-2.47c25.52-5.2-30.21-6.46-35.89-6.29-27.41.82-54.76,5.68-82.24,4.48,0.22,0,37-10.36,31.31-10.56C3114.63,1086.14,3135.65,1086.81,3118.6,1086.21Z" transform="translate(-1521.6 -1085.63)" fill="none" stroke="#000" stroke-miterlimit="10"/>
  <path d="M3400.7,1410.42c-4.26,6.11-8.63,10.91-15,13.72-5.08,2.24-24.16-7.36-26.62,6.83-8.66-21.81-6.65,6.16-13.87,2-1.61,3.11-2.22,3.9-2.25,8.06-0.56-.8-1.92-2.65-5.81-2.8,0-4.08,1.15-2.74-2.25-6.89,3.91-4.83,1.54-3.48.19-6l2.25-2c-5.5-4.71-13.38-14.67-19.5-7.22,2.79,0.1,3.73,7.75,4.88,11.25-1.87-4.89-4.22-4.79-9.75-8.46-2.43,3.37,0,3.21.75,5.66-2.13-.49-2.59-1.84-4.69,0,1.39,1.14,2.84,2.16,4.31,3.19-2.23.42-3.26-1.75-4.12,2,1.87,0.85,3.34.51,5.25,0.84a6.19,6.19,0,0,1-6.56-.39c-3,2-4,3.84-5.44,3.19l-1.12,4c9.76,3.44,18.52-5.58,26.81-1.18-3.85-1.31,2.23,2.48,5.06,2.8-4.79,1.82-5.26,4.25-8.44,6.83a66,66,0,0,0,8.06,1.62c-8.36,2.83-18.29,3.55-27.19,5.26,5.18,5,13.59,1,21.94,4.42,1,4.48,2.56,5.39,8.25,4-5.86,2.32-1.69.24-5.25,6.83a5.49,5.49,0,0,1,5.06-1.57c-1.46,2.42-6.4,1.28-1.87,4.82-4.73,2.18-6.25,4.17-12,4l0.38,5.66c10-2.22,18.94-2.23,28.31,1.62l-2.62,1.18c16.41,12.37,27.88,4.12,39.47-2.6,9.61-5.58,37.27-14.06,32.91-26,5.4,1.69,8.11,1.82,6.38-3.25l2.81-.39c-1.44-1.86-2.78-2-4.87-2.41,2.1-.26,3.28-0.53,4.88,1.23-0.38-3.18,1.13-5.86.75-8.06h-2.81c4-7.11.91-9.22-6.37-7.67-1.33-2.08,2.58-5.82-5.25-4,1.53-7.91-5-11.19,3.94-16.52C3411,1418.85,3406,1419.19,3400.7,1410.42Z" transform="translate(-1521.6 -1085.63)" fill="none" stroke="#000" stroke-miterlimit="10"/>
  <g>
    <path d="M2764.66,1388.48l1.89-.37A11.07,11.07,0,0,0,2764.66,1388.48Z" transform="translate(-1521.6 -1085.63)" fill="none" stroke="#000" stroke-miterlimit="10"/>
    <path d="M1910.74,1262.84c-0.56-.09-1.1-0.18-1.63-0.29A9.09,9.09,0,0,0,1910.74,1262.84Z" transform="translate(-1521.6 -1085.63)" fill="none" stroke="#000" stroke-miterlimit="10"/>
    <path d="M2412.75,1265.38a6.51,6.51,0,0,0,2-.8C2414,1264.84,2413.37,1265.13,2412.75,1265.38Z" transform="translate(-1521.6 -1085.63)" fill="none" stroke="#000" stroke-miterlimit="10"/>
    <path d="M2764.3,1388.55l0.07,0,0.28-.09Z" transform="translate(-1521.6 -1085.63)" fill="none" stroke="#000" stroke-miterlimit="10"/>
    <path d="M2728.11,1414.42c0,0.15.06,0.3,0.09,0.45C2728.34,1414.59,2728.34,1414.41,2728.11,1414.42Z" transform="translate(-1521.6 -1085.63)" fill="none" stroke="#000" stroke-miterlimit="10"/>
    <path d="M1524.55,1310.48c0.59-.08,1.18-0.19,1.76-0.31a3.82,3.82,0,0,1,.49-0.81Z" transform="translate(-1521.6 -1085.63)" fill="none" stroke="#000" stroke-miterlimit="10"/>
    <path d="M2649.92,2983.11c0.2,0.16.39,0.32,0.57,0.49A1.9,1.9,0,0,0,2649.92,2983.11Z" transform="translate(-1521.6 -1085.63)" fill="none" stroke="#000" stroke-miterlimit="10"/>
    <path d="M2053.51,1542.3l-1-.07A1.28,1.28,0,0,0,2053.51,1542.3Z" transform="translate(-1521.6 -1085.63)" fill="none" stroke="#000" stroke-miterlimit="10"/>
    <path d="M2651.68,2985a10.68,10.68,0,0,0-1.18-1.35C2651,2984.29,2651.25,2985.21,2651.68,2985Z" transform="translate(-1521.6 -1085.63)" fill="none" stroke="#000" stroke-miterlimit="10"/>
    <path d="M1940.56,1427.23h0Z" transform="translate(-1521.6 -1085.63)" fill="none" stroke="#000" stroke-miterlimit="10"/>
    <path d="M2001.92,1503.08c0-.1,0-0.21.07-0.31C2001.86,1502.95,2001.82,1503.07,2001.92,1503.08Z" transform="translate(-1521.6 -1085.63)" fill="none" stroke="#000" stroke-miterlimit="10"/>
    <path d="M1940.56,1427.23c-0.32,0-.33,0,0,0h0Z" transform="translate(-1521.6 -1085.63)" fill="none" stroke="#000" stroke-miterlimit="10"/>
    <path d="M2698.9,1651.64a6.74,6.74,0,0,1,1.39,2.71l0.64-.08C2700.74,1653.11,2699.67,1652.31,2698.9,1651.64Z" transform="translate(-1521.6 -1085.63)" fill="none" stroke="#000" stroke-miterlimit="10"/>
    <path d="M3114.27,2330.41c-3.77-3-12.44-.84-17.16-2.92-6-2.63-9.86-8.74-15-13.5-12.11-11.22-18.41-14.27-34.12-16.22-13.26-1.64-24-10.43-38.62-.91-3.23,2.81-2.7,1.17-5.06,5.63,1.47-4.81-6.84-24.73-6.94-26.31-4-1.3-8.31-3.43-10.5-6.06-8.7,2-27.16-12.51-27,9.66-7-1-11.12,7.87-14.67,14.19,2-3.84,1.8-7.5,2.67-11.73-3.63.36-3.56,2.24-5.44,4.06-2.35-.47-1.49-6.37-6.56,0a14.5,14.5,0,0,1-4.31-8.78c2.53,4.91,5,7,6.38,1.13,2.38,3,3.64,5.24,6.19.91,7.25,2.57,15-8.24,16.13-19.34-8.4-1.78-30.15-5.77-26.06,6.06-3,3-3.3,1.38-.19,7-2.81.15-3.57-.37-3-2.91-6.7,4.45-12.73,10.06-20.44,8.78,5.57-2.21,28.66-29.8,30.19-37.81,2.11-11-5.11-9.43-8.91-17.09-2.9-5.87-4.13-17.41-4-24.09l-0.75,2.5c-1-4-.26-6.18-4.31-9-0.12,2.11,1.13,4,1.13,5.84-0.92-1.86-1.22-2.88-3.19-1.12,0.07-3.29-1.19-5.47-1.69-8.56-0.4.77-1.6,3.33-2.44,4.06,0.09-3.76,1.43-6.28-3.56-5.41-1.77-7.83-17.58-20.17-22.12-9,4.29-10.25-8.9-9.37-10.12-7.66-5.39-1.23-8.77-3.43-10.31,2-6.44-4.43-13.76-5.17-16,1.81,1.46-9.94-12.79-25.21-17.33-11.71,4.65-12.15-1.17-22.46-12.88-27.71-7.57-6.45-15.14-.08-22.56-4,15.61-3.48,2.79-21.28-1.69-14.84-0.85-2.75-2.68-4.21-5.44-4.06,0.16,1.45,5,.27.38,2.25-2-2.4-6.06-4.08-6.37-4.28-1.45-1.39,2.06-6.47-2.81-2.91l-0.75-2.47c4.4-1,16.8-1.45,13.69-4.28s-28.89,0-29.25,1.56,3.9,2,6,2.94c-12.56,1.83-14.16,3-26.44.66-3.17-.6-20,0.49-24.37-1.34-5.12-2.15-.38-7.65-4.69-10.12s-10.06-2.71-13.55-4.66c-4.87-2.73-1.27-9.4-7.83-8.62-6.15.73,5.91,8.44,5.25,8.13-12,5.05-18,5.09-19.69,17.38-0.67,5,6.89,8,3.38,14.34-4.08,7.39-7.79,2.74-9.75-2.72-2.71-7.53,4-8.59,3.89-14.45-0.11-4.12-5.19-10.38-4.27-14.12,1.14-4.57,11.59-2.46,9.38-10.23-1.58-5.56-10.71-.89-11.81-0.11-4.59,15.35-24.89,8.32-27.37,21.38-6-16.32-12,11.17-14.39,15.63-3.51,6.5-17.8,13.29-13,24l-2.06,1.13c-1.79-7.87-8.92-15.75-15.75-19.56-11-6.13-13.52-1.51-22.69,1.13-20.12,5.78-23.94,5.41-36.66-12.61-17.08-24.22,11.78-67.63-10.78-78.3l2.44,0.66c-9.79-11.41-33.6-5.58-47-6.06-4.24-.15-10.3,4.38-12.56.45s5.07-7.21,6.19-12.16c1.64-7.3,3-20.46-.66-23.17,1.16-3.88,1.8-4.6,4.31-6.75,0.6,3.1.45,3.41,2.06,6.53,4.24-10.33,2.33-18.13,5-27.22,1.32-4.57,6.64-6.74,7.08-11.6,0.79-8.69-4.13-8-5.11-6-7.64-2.83-28.77-1.88-35.06,4.5-9.14,9.26-1.77,23.91-13.56,32.36-1.73,4.55-2,7.38-8.94,4.76l2.06-1.12c-7.73-1.75-15.24,2.93-23.25,4.5l2.63-.44c-11.18,7-15.07-5.19-25.69-6.53l1.5,1.78a11,11,0,0,1-3.75-2.69l2.06,1.34c-10.17-10.53-20.08-32-23.62-46.34a27.38,27.38,0,0,1,3,6.12c-3.42-13.12-4.36-24.43-2.66-40.09a16.57,16.57,0,0,0-.56,4.72c0-7.79-1-14.33,3.47-20.12,2.2-10.09,3.38-17.91-3.84-29.6,4.69,1,6.31,1.54,4.13-5.62,4.49-3.7,4.72-2.85,7.5-8.78A3.31,3.31,0,0,0,2382,1848c1-2.17,0-3.06,0-5.16,2.4,0.17,4.4.71,4.69,3.16,7.13-3.36,14.58-8,15.19-16.66l2.63-.47c-0.32,3-.3,1.88-0.56,4.5,3.69-1.83,6.55-3.88,10.69-4.5-1.68-2.48-.53-1,0.94-2.91l-1.31,2c9.46-1.26,33.61,1.41,30.56,6.06a74.69,74.69,0,0,0,14.81,2.69c0.15-1.87.23-3.76,0.38-5.62a14.08,14.08,0,0,1,8.06,8.78c5.64-7.54-6.63-7.43.38-16.19-2,.39-2.12,1.07-3.94,2-0.43-.2-1.83-2.39-1.32-3.12-3.26.14-3.68,0.51-7.3-.94,7.21-.7,25.26-0.34,29.81-6.75-0.42,8.49,2.08,4.4,7.13,3.38,0.71,1,0,2,4.31-1.81l-0.94,2.5c4.56-1.3,7.6-.52,11.44-0.47l-2.44.47c5.11,0.61,6.35,3,10.13,5.16l-2.06-1.12c5.95,11.47,8.3-.15,14.81,1.59,6.74,1.8,6.43.8,12.94,7.08,9.88,9.53,4.08,14.4,8.26,25.31,0.36,4.53.92,9.25,5.8,13.05l-0.94-2.47c2.89,2.34,2.45,3.26,4.88,4.72-2.15,10.29,6.38,12.53,10.13,21.16l-2.25-.69c15,7.79,15.17-22.56,10.31-32.16l1.13,2.25-2.62-7.22,0.56,2a31.93,31.93,0,0,1-4.5-15.31c1.76,3.25,1.71,5.93,2.44,9.47,0.61-13.35-10.13-35-11.06-47a27.22,27.22,0,0,0,7.88-16.66c2.28,2.63,1.38.61,2.81,3.59,0,0,2.85-4.63.94-3.81,8.39-2.25,34.62-21.61,36.94-31.94a12.91,12.91,0,0,0,13.69-3.37c-3.66,1.34-5.63-1.6-9.19-2.5,6.56,1.42,7-.2,1.5-4.5,7.23,2.77,15,1,12.56-6.75a4.87,4.87,0,0,1-2.27,3,21.31,21.31,0,0,0-.17-3.85c-7.28,2.93-5-.89-6.94-4.06,2,3.73,5.91,2.74,10.31,2,0-6.88-3-9.73-7.11-12,0.92-3.36-1.43-4.63-4.7-8,2.65,1.08,3.58,2.74,6.75,1.34a64.24,64.24,0,0,1-5.58-5.92,8.2,8.2,0,0,0,5,2.11c-3.22-8.46-16.9-7.59-8.81-16.66,0.07,6-.25,9.19,7.69,9.22-3-1.93-2.28-3.77-3.56-6.28,1.43,1.69.09,3.2,3.19,3.38-1.8-4.36-.92-7.94-2.06-12.16,2.89-1.56,5-3.5,7.69-5l1.13,2.25c-6,4.65-6.44,8.78-1.5,12.16-1,1.16-2.58.66-3.94,2.25,4.2,2.4,1.66.9,5.06,1.81,1.7,3.88-.58,3.28,2.63,5.63a31.76,31.76,0,0,0-3.37,11.47c10-18.38,7.06-18,5.25-36.69a19.84,19.84,0,0,0,8.25,10.13c8-12,4.85-21,11.25-31.5a15.57,15.57,0,0,1-.94,5.88c9-8.49,27.88-3.85,31.13-14.19l2.44,0.44-0.19,3.38c1.69-.68,4.52-3.35,5.81-3.59,3.53,1.77,8.12,1.87,7.61-1-21.58,2.72-.73-28.36,3.07-30.9,5.1,4.35,12.44-11.46,21-5.62,6.1-1.91,11.66-5,11.06-12.37,9,3,27.11-1.72,29.63-11a17.8,17.8,0,0,0,3.19,2.94c-2.15,1.51-4.36,5.09-6.37,6.28a28.6,28.6,0,0,1,17.44.47,53.88,53.88,0,0,0-8.25,3.59c-7.38-5.86-20.93,6.77-20.81,7.41-8.86,10,1.26,12.89,7.41,11.94,6.86-1.06,12.42-10.91,15.66-13.72,5,4,1.7,1.39,3.75-.91,10,1.48,23.28-5,32.06-8.78-0.64-.48-3.85-1-4.87-1.34-0.67-2.34-3-3.54-6.94-6.53-7.06,4.27-17.79,1.88-24-2.69l2.44-.69c-8.27,0-13.65-5.83-12.94-13.94a29.87,29.87,0,0,1-5.25-.47c3.91-2.91,3.8-5.73,6.94-9.22-4.56.64-6.54-.87-11.44,1.81-2.75-5.15-6.78-5.54-12.37-5.62,7.31-2.6,34.7,1.22,27-12.16l2.81,0.22c-28-27.24-62.79,24.54-84.56,29.72,7.09-6.5,22.16-17.84,12.48-22.25,20.61,0.79,38-27,61.58-28.16,13.47-.65,27.21,2,39.75,2.25,15.17,0.36,23-8,36.66-15,6.18-3.16,44.27-7.89,31.78-17.87,1.78,0,3.13.82,5.06,0.44-2.84-2.06-5.65-2.26-9.37-2.94a21.75,21.75,0,0,0,6.75-1.56c-0.22-.53-0.41-0.95-0.57-1.3,0.35,0.2.76,0.07,1.13-1-0.61-2.26-2.19-1.61-3.56-2.69,0.72-.67,3.82-1.44,4.13-2-2.81-3-9.33-8.16-9.6-8.55-3.86,1.59-7.67,2.33-10.47,1.8,6.51-7.22-5.17-10-10.69-6.53,1.79-.9,3-0.53,4.69.22-9.32-.09-19.06,6.7-27.16,10.59H2816c1.61-.61,2.69-1.43,4.5-1.59-2.55-1.57-5.54-3.45-8.44-4.28,7.33,1.66,20.35-1.32,26.31-6.18,5.24-1.43,10-3.75,12.88-6.85-8.11-1.28-19.76-2.75-21.19-8.09a17.75,17.75,0,0,1-7.5,5.16c0.76-1.58,2.18-2,2.81-3.81-3.28-2-.29-0.84-1.87-2.94-2,1.37-4,2.62-6,4.06l0.56-2.94c-1.41.38-2.8,1.62-4.12,2.25a54.78,54.78,0,0,1,4.13-5.84l-2.44.69c0.83-2.3,1.24-2.7,1.13-4.75-1.56,1-2.68.65-3.75,2.5l0.38-3.16c-2.62-.05-6.57-1.29-10.5-2.72-0.88-3.27-.21-1-4.69-4l2.81-.47c-4.19-1.57-2.77-1.54-1.5-3.37a20,20,0,0,1-5.25-.87h3a21.74,21.74,0,0,1-5.06-1.81c4.18,1.28,9.41-.94,5.81-0.44,2.5-.78,4.26-1.53,6.75-2.5-4.24-4.91-6.78-5.62-13.31-7.62,2.24-1.11,4.11-2.35,6-3.37-3.26-2.41-4-2.53-7.5-3.84l2.25-.91a7.73,7.73,0,0,0-5.21-1.18c1.78-.77,2.54-1.49,0-1.94-0.07-.93,3.65.14,1.69-3.16-3.79.47-6.29,0.51-9.94,1.78,7.59-2.84,6-8.73,4.69-9.87a41.19,41.19,0,0,1-9.56-.47c2.89-.38,4.53.59,6.56-2-2.18-1-4-2.06-6.37-2.91-1.46-2.44-5.33-8.27-5.81-10.12a9.07,9.07,0,0,1-4.5,1.56c3-1.34,4.22-2.65.64-3.57-3.49,1.12-5.12,3.89-4.57,6.95-1.72.11-2.78-.86-4.69-0.22-0.43,3.87,1.67,4.12,4.88,5.84-3.25.1-5.11-.45-7.87,2.72,1.13,2.47,2.38,1.1,3.94,2.25-6,.65-7.91,4.15-6.94,9.22-2.78-9.94-14.46-.12-20.44,5.16-0.46-1.73-.13-3.75-0.47-5.61-0.59,1.17-3.66,4.16-3.09,3.36,0.06-2.14,1.28-2.81.19-5.16a12.58,12.58,0,0,1-4.45,4.86c2.07-3.12.61-7.21-4.09-9.7-2.47-1.31-6.34-.39-10.21.54,0.82-2,2.76-4.55,3.36-6.29-1.4-1-4.08-.1-5.06-0.87,1.2-5.91-1.89-8.21-6.32-9.2,5.17-1.16,5.55-6.22,9.88-12-6.16-2.32-22.26-1.74-30.19-8.78a6.87,6.87,0,0,1,3.75-2.47c-2.68-.33-4.47-0.79-7.31,0,1-5.84-2.83-3-7.31-3.16,0.37-1.66,1.78-1.83,1.31-4.28-7.54-4.36-20.26-5.58-23.25.22a14.78,14.78,0,0,0-14.25-1.34c-0.71-1.26-20.26-9.64-26.62-2.12-5.44,6.41,4.92,8,4.88,11.7,0,3.38-3.29,9.69-3.19,10.23l-0.94.44a18.82,18.82,0,0,0,5.44-.44c-3.66,5.31,2.07,12.66.94,18-4.57.81-7.19,6.73-13.5,9.22,6.47,15.66,35.39,18.81,21,42.53-6.18,10.18-42.62,17.36-27.37,26.31-0.16,4.92,3.5,15.18,3.66,21.5,0.17,7.15-1.61,13.52-2,20.81-3.92-7.77-7-6.55-9,1.78-4.09-3-8.24-3.47-12.25-1.5,7.41-6.65-5.68-14.48-13.62-14.47,1.74-.85,2.53-1.49,4.5-1.34-10.46-7.66-8.76-18-11.3-29.2-1.59-7,5.25-5.77-2-12-4.29-3.72-12.18.72-11.86,0.3-6.78-2.93-16.31-3.62-21.94,1.78,2.29-7.37-32.84-21.88-41.53-25.86-16.22-7.43-31.08-5.11-47.34-1.58,11.13-8.14-9.3-40-18.19-21.37-0.25-1.52.8-4.11,1.13-5.62-3.85-.56-4.58-2.86-8.06-4.06,5.77-21.79,9.28-34.87,24.75-45.91-1.28-.33-3.61-0.56-4.69-1.34,2.88,1.29,5.73,1,8.63,2.72-2.17-3-.92-1.33-3.56-2.72,4.14-2,5.61-4,10.88-3.81-2.38-.87-4.3-1.47-6.56-2.47,6.05,0,22.64.69,20.77-6.87-1.5-6.06-17.4-5.79-21.89-3.94,1.71-1.57,2.09-.06,3.67-2.56,10.3,2.45,21.39,3,27.27-1.25a8,8,0,0,0-3.37-2.72c1.3-.42,3.95.41,5.25,0.69a6.45,6.45,0,0,0-3.75-2.47c18.56,1.46,25.9-.17,37.88-15.09-3.52-1-7.15-1.89-10.82-2.73,9.07,0.76,17.46-4.65,22.64-12.11-3.89-1.06-6.1-3.4-8.06-4.28,12.38-2.4,15.87,3.76,27,4.06l-0.75-2.25c4.32,1.77,4.38,1.62,8.25,1.13-4.06-5.21-9-9.15-14.77-9.14a30.29,30.29,0,0,1,13.27,2.17c1.38,10.13,18.66,3.43,24.38-2.72,10.22-11-1.87-10.15-7.5-22a16.54,16.54,0,0,0,15.19-3.62c-3.15-2.2-5.89-2-9.75-2,3.45-.94,6-1.43,8.63-4.06-7.92-1.42-14.64-4.21-22.69-5.41a34.87,34.87,0,0,0,8.25.22c-4.19-1.64.19-1.56,2.81-1.56-13.16-1.22-26.39-3.29-39.37-2.69-0.31,5.24,3.67,10.66,11.81,11.91-2.71.2-4.64,0.29-6.94,2.25,1.88,0.13,3,.9,4.69,1.59-14.92-3.92-17.62,21.43-32.62,22.72-2.2-5-12.53-8.47-8.62-17.09,1.68,0.22,2.07,1.47,4.31,1.56,0.23-6.94-3.48-10-9.94-12.16-10.47-3.54-6.84,3.26-13,5.17-9.22,2.85.09,5.56-9.09,1.58-1.22-.53-4.11-9-10.12-10.34,4.84,0.18,6.31.91,10.31-1.34a23.71,23.71,0,0,0-12-1.34q2.36-.65,4.69-1.37a46.26,46.26,0,0,1-19.31-.66l2.44-.69h-3a41.31,41.31,0,0,0,8.63-4.28c-2.7-1.07-2.21-.35-4.69-0.87,2.64-.13,7.33-1.57,11.25-1.37-4.52-2-6.09-2-9.94-6.28-2.27-2.52-5.53-8.35-7.69-10-6.86-5.3-15.3-7.37-21-10-1.55.52-3.8,0.3-5.44,0.44l1.88,1.59a54.93,54.93,0,0,0-9.37,3.16c1.78,1.11,3,.89,4.5,1.78-7.86,1.18-20.67,13.73-5.71,11.59-1.42.26-2,.72,0.46,1.91-21.14,2.45,18.16,16.07,27.94,15.09l1.13,2.25a19.21,19.21,0,0,0-3.94,2.47,5.86,5.86,0,0,1,3-3.59c-7.63.74-9.81,3.06-12.56,8.53,2.8,2,4.37,1.38,6.77.37-0.67.08-.85-0.33,0.92-2.15,5,2.18,2.62,1.49,4.88,5.16-14.53,8-28.29,6.29-20.25,23.41-3,0-6.77,1.69-9.94,1.34a7.08,7.08,0,0,1,3.19,3.16,19.78,19.78,0,0,1-6.75-5.62c4,1.29,7.47,2.21,11.25.22-2.1-2.37-1.5-3.71-2.06-4.72-10.7,3.81-9.47-4.89-5.44-12.59-2.93,1.29-6.75,1.4-9,2.47a13.42,13.42,0,0,0,3.38-3.16c-6.66-.06-11.22-2.38-18-3.37a33.31,33.31,0,0,1-7.69,3.16c0.49,0.41,2.88,2.44,3.19,3.38l-2.44-.91c6.63,3.31,13,1.33,16.88,6.75-6.33,1.38-12.25-1.5-17.06-5.84l-1.31,2c1,0.75,3.16,1,4.13,2-13.77,3-51.35,4.92-60.75-5.41-8.88,5.32-16.72-1.65-25.5-3.59,1.43-12.21-32.65-5.28-36.75,2.47,5,1.8,7.51,1.57,9.56-1.34,5.37,0.48,10.13-.21,15.19.66,3.49-3.87,3.77-4,10.5-4.72-7.42,5.24-15.11,7.62-26.25,9.22l2.06,1.13c-1.55,1.49-2.51-.48-3.94,2.25a84,84,0,0,1,10.13,12.84q-2.15-2.55-3.17.6c-0.29-.54-3.44-4.27-2.83-3.54-1.31,5.32,1.61,6.22,4.69,10.13-5.22-3.9-9.69-7.16-14.81-10.81,2.68,0.18,4.57,1.23,7.5.25a36.11,36.11,0,0,0-8.44-7.44c-2.13.68-1.62,2.25-3,3.38-10.77-17.3-58.23.06-80.25-8.09a22.36,22.36,0,0,1,18-4.72c-3.75-7.92-22.25-12.85-24.75-7.87-17.39-2.37-34.32-5.09-51.37-9-8.59-2-15.46-6.68-24.94-5.33-8.88,1.27-14,9.28-24.56,5.79,1.84-1.41,3.46-3,5.25-4.5-5.27-3.8-1.45-.31-3.75-5.41-2.64-.65-5.36-1.17-2.25,1.13-2.51-1.28-4.85-1.13-6.75.69a5.94,5.94,0,0,1,5.06,0,33.55,33.55,0,0,1-6.75,2.47c2.31,1.33.11,3.22-3,5.19a4.18,4.18,0,0,1,4.5.66c-16.54,3.22-20.53-15.14-35.25-16.87-0.33,5.4,2.56,3.27,6.56,5-8.31,0-12.36,5.73-19.31,7,0.78-.72,2.93-2.32,3.38-3.37-9.52,3.57-20.08,2-25.69,11.91,0.29-1.77-.05-3.94.19-5.84-0.9,1.41-2,1.73-2.74.69,7.74-2.18,15.15-4.81,20-9.69-7,.83-34.89,5.28-34.31,7.66-6.39,1.14-19.35,3.46-23.86,8.31a26.53,26.53,0,0,1,7.17-7.41c-6.56-1.09-21.15,1.88-21.94,6.28q-2.3-2.09-3.75.69c1.59,0.32,3.13.71,4.69,1.13a12.38,12.38,0,0,1-3.62.29c5.42,0.85,12.19.86,16.75,4-4.4-2.2-8.6-3.5-14.06-2.47a9.33,9.33,0,0,1,3.38,3.13c-22.21-10.41-53.35-10.85-76.92-15.91-26.87-5.77-56-5.74-82.83-9.05-16.07-2-31.26-.83-46.69-2.47H1716c-1-1.84-6.64-.57-1.69-3.37-18.89-4.42-31.62-1-46.87-1.56a44.73,44.73,0,0,0,6.94-2.5c-12.44-6.3-29.8,2-44.06,5.88-4.23-3.18.26-.78,0.94-2a18.81,18.81,0,0,0-11.81,3.16c0.62,0.22,1.22.4,1.81,0.56-7.55,1.32-15.31,4.57-23.38,5.72-2.65-3.7-17.9,14.38-26.2,17.39-13.13,4.77-21.54-1.08-31.36,9,17,3.93,37.14,22.82,52.13,17.44a38.33,38.33,0,0,0,8.81,2.34c-4.3,9.69,11.19,2,17.06,8.09a109.69,109.69,0,0,1-20.62-2.25l0.19,3.38c5.26-.76,4.71.07,8.63,1.59-11,3.29-22.15,2.5-35.06.22,1.85-1.8,3.71-2,4.13-5.62-8.25-.63-21.93,1.72-22.12,6.75-10.12-2.19-18.19,4.11-27.11,6-2.19,4.94,14.85,4.8,21.49,6.81-3.14.63-6.25,1.14-9.75,1.59,12.13,13.49,26.91,5.83,44.63,8.53,2.17,3.92,21.71-9.9,28.5-1.12a23.64,23.64,0,0,0-6.37,2.72c19.68,10.29-20.47,20.68-29.06,20-2.46-3.74-5.77-3.76-7.87.22-4,1.34-3.63.06-5.44,4.28,2.23,1.46,2.8-.64,4.5-0.25-2.42,1.11-4.43,2.23-2.06,4.28-7.08-1.59-12.24,2.06-11.62,8.56-5.91,1.45-2.63,1.62-6.37,2.69l0.75,2.47c0.91,1.05,4.17,2.29,7.88,5.88a10,10,0,0,1,4.32-4.38,20.89,20.89,0,0,0-2.64,2.79c3,0.45,2.7.91,5.81,1.34a14.05,14.05,0,0,1-4.31,1.81c5.82,1.93,12,2.3,17.44-.44,3,2.24.59,1.21-.94,2.25,1.93,0.95-2.43,3.12-6.75,3.38-1.5-5-6.59-3.49-12.37,1.13,1.41,0.17,4-.54,5.06-0.25,3.43,5,33.75,16.15,28.13,4.06,2.05-2.78,4.77-3.65,6.94-5.41-3.51,3-5.84,5.5-1.12,6.09,4.46,8.57,5.29,17.79,1.31,22.94,15.69-.5,23.84-10.37,38.06,3.38,0.51-6.44,3.27-10.28,9.56-8.09-2.6,1-4.34-2.26-5.25,2.47,7,3.57,15.34.34,20.81-5.41-4.11,5.57-9.67,9.71-5.62,14-4.33,3.49-7.56,5.29-1.87,10.13-7.7-1.09-37.79,16.05-35.81,24.28-1,.1-3.45-1.18-4.87-1.12l0.94,2.25c-4.32-1.17-3-1.77-1.87-4-11.76-.11-25.39,9.27-29.06,16.88,1.25-.88,2.14-3.47,2.81-3.84,5,1.3,2.24,2.6,6.56-1.78,5.91,5.23,7.43-2.88,13-4.22-0.32.2-.5,0.77-0.45,2.19a97,97,0,0,0,21.94-6.75l0.19,3.16c6.16-5.11,16.48-7.42,14.63-9l2.44-.69a18,18,0,0,0-5.25-.22c14.13-7.07,23.51-11.35,34.88-18s17.42-13.68,29.25-19.34c-3.43-.53-7.75-3.39-11.44-3.62,4.53-5.45,11.78-8,13.5-10.56,7-.55,5.7-2.16,2.25-6.31,7.89,0.25,12.21-7,19.22-10.29,7.76-3.59,16.31-4,23.91-6.34-3.36,1.36-5.44,1.44-7.5,4.94,3,1.13,6.83,3,9.86,3.79-7.66-1.52-16.71-3.26-23.46,1-5.87,3.75-14.4,19.47,1.22,14.73-5.35,2-7.73,5.33-10.31,8.13,9.65,0.71,21.82-5.85,25.5-10.81,1.77,0.1,2.07.34,2.11,0.42,0-.11.37-0.57,2.58-1.77,4.42,3.17,9.62,2.25,13.5-2.94l-2.25.69a34.91,34.91,0,0,0,5.44-4.28,50.14,50.14,0,0,0-7.31-.69c2.19-.56,20.5-5.26,25.88-7.62-1.71.95-2.8,0.56-3.37,2.91,1.75,0.93,3.15.82,5.06,0.91a44.23,44.23,0,0,0-5.06,1.13c6.54,0.54,8.24,2.78,9.75,4.06,5.67,1.68,10.48.59,15.19-3.37-8.77,11.15,31.22,11.16,39,8.53-0.12,6.17,0-.76-0.94,3.16,8.14,3.27,15.75-.1,22.44-0.53-1.42,2-1,2.81-3.5,5.24,12.95,5.74,33.25,20.91,45.75,16.22-4.08-2.86-6.35-6-12-7a51,51,0,0,0,11.81-.44l2.25,0.91c-0.56,2.9,6.48,9.23,8.63,9.66,0.27-5.15,21.35,8.16,24.75,9.69a17.36,17.36,0,0,0-3.19-.68c-3,3.37-.53,3.57-2.25,5.87,4.89,1.85,9.19,4.06,14.06,5.16,0.38,1.1,7.74,8.58,10.31,8.56-4.67,1.1-12.08,7-5.25,10.13-3.94-1.81,9.68-7.84,11.06-8.09,1,2.35,3.24,9,3.94,11.25-2.73.81,7.91-.82,8.25,3.38,1.18-2.13-1.5,2.38-.54,5.47a10.52,10.52,0,0,0-3.59.81c2.13,2.61,3.53,2.84-.75.91,0.64,4.74,3.39,5.07,8.24,4.86-1.28.26-2,.88-1.54,2.21-0.75-1.73-1.67-1.62-2.77.37,2.37,4.29,18.25,2.16,18.56,2.91-4.45,4.8.66,5.35-3,4.06-0.51,4.65,2.76,8.78,7.88,10.34-0.67,2.42-.71,4.93-1.25,7.35,0.52-.75,2.62-2.66,2.95-3,0.79,1.86,1.44,2.74,1.67,4.9,5.3-1.74,8.09-5.09,9.94-9.44-0.53,2.23,0,4.11-1.87,6.53,1.81,0,.76,9.33,6.56,9.44-5.33.55-9,1.49-12,6.06,1.57,0.2.75,0.51-1.69,2.5,5.49,3.92,24.05,8.22,27.19,7.19,2.83,5.09,6,1.91,8.63-3.59-1,2.29,2.44,7.34,5.06,6.28-9.71,6.75,2.62,14.47,5.3,5.64-0.87,4.35.42,6.66-.22,7.06,4.76,0.44,2.32,2,9.17-1-1,6.61,8.82,21.19,12,23.63-1.16,6.19-21.9-2.2-30.37-5.62,2,8.6,7.08,21.37,11.63,24.75-3.62,3.19-.07,1.67-3.56,3.16,1.92,1.58,5.49,4,8.06,4.5-11.41-1.73-11.12,50.65-9.89,60.9,2.49,20.73.4,44.5,21,58.79,1.27-5.17,3.71-3.69,7.75-3.67-4.84.47-7,2-4.37,8.38-1-.15-3.36-2.71-3.75-2.69,2.06,12.62,11,24.42,19.5,35.31,6.69,8.56,3.89,6.68,13.13,11.94,6.79,3.86,14.57,5.26,20.63,10.34,11.59,9.73,18.64,29.63,24,42.31,7.17,16.94,20.75,27.7,24,43.88a20.22,20.22,0,0,0-11.62-.47c6.46,6.44,15.07,16.07,22.69,12.38,5,12,14.17,13.74,12.38,31.06,5,0.22,14.41,13.48,21.94,18.44,4.33,2.85-.11,11,7.27,5.81,6.25-4.43.74-7.24-1.27-11.66-2.67-5.89-8.24-3.56-10.78-7.55-1.9-3-2.46-9.9-3.8-13.7-2.58-7.35-6.34-21.53-9.42-17.69-4.1-12.45-13.7-24.61-21.19-34.62-11.28-15.1-12.44-26.18-17.81-43,9.52,8.33,17.51,5.89,23.25,14.88,4.74,7.41,6.39,18.93,11.16,26.77,10.84,17.82,27.83,25.76,36.66,41.17-4.45,2.6-5.14,10.16,3.19,5.84a45.44,45.44,0,0,1-2.25,4.28c4.38,1.71,8.46,5.48,8.44,5.84,3.11,3.87,5,6,8.81,10.13l-2.06-1.12c12.87,8.44,23,24.84,27,38.87,4.21,14.69-5.49,22.43,6.89,35.6,10.25,10.91,26,14.64,37.88,20.94,12.36,6.56,24.17,13.87,36.84,19.8,20.29,9.48,24.91,12.44,46.22,3.39q-3.65-1.29-.19-2.72c2.56,2.64,5.53,3,10.5,5.84a8.55,8.55,0,0,0-2.54-1.79c13.41,5.56,19.33,23.32,32.54,30.38,9.62,5.14,24.65,8.31,35.63,11.91l-2.06-.87c6.48,1.46,10.55.48,15.75-1.81-2.26,3.86.1,2,.94,5.84q-2.49,1.92-3.37-1.12c2,10,16.28,16.22,20.44,26.11,3,7.12-2.87,18.13,9.56,23.86,2.15-4.47.31-5.78-2.44-9.91,9.23,8.54,18.61,16.73,22.13,26.53,0.73-1.93-.11-2.93.38-4.25,1.77,3.54,4.81,6.07,6.19,10.13,5.45-14,16.73,9.14,20.06,2,0.47,1.83,4.67,10.24,6.47,9.52,9.76-3.89,2.53-5.22,4.78-9.05,2.81-4.79,4.38-15.79,15.56-18.22,1.19,4.92,6.11,9,10.88,8.75,0.29,3,1.76,3.81,4.13,5.63-2-1.41-3.55-1.91-4.87-4-5.9,8.94,7,24.43,8.44,33,1.07,6.39-.37,29.55,3,29.58,1.68,3-2.35,2.64,1.88,2.25-8,13.4-16.32,23-24,32.41,6,10.83-7.33,6.23-12.75,12.59-1.31,1.54-2,20.43-2.06,20.25-10.68,3.77-9.78,36.07,3.38,24.53,0.06,1.65-2,4.65,1.31,1.59-0.4-2.15.18-3.6,0.56-5.62,2.74,16.42-6.84,15.24-13.5,27-3.78,6.68-3.77,26.27-2.25,29.14,4.58,8.64,14.94,15.54,20.44,25.75,5,9.29,9.29,17.53,13,27.25,7,18.19,17.87,33.83,24.19,51.73,4.05,11.49,1.49,17,11.34,27.45,8.4,8.89,19.43,13.6,29.81,20.25,21.8,14,30.88,26,33,52.66,1.89,23.74-2.75,44.06-4.87,65.69-2,20-8.91,40-11.44,59.84-2.43,19.05,1.19,43-2.25,62.33-3.7,20.79-20,45.37-23.25,62.33-1.79,9.35,4.88,21,3.28,31.28-1.73,11.12-10.06,17.84-4.59,28.81,6.86-2,12.62-3,16.88-4.06-2.34,2.23-2,11.15-5.25,11.25,0,0.23,2,4.18,2.37,4.18-2.24,3.51-12.74,26.73-.12,26.42-3.37,5.37-7.65,9.7-10.31,12.59,2.53,0.54-2.56,2,1.5,5.63-2.15,3.48-3.36,4.81-4.24,8.7a1.87,1.87,0,0,1-2.13-.82c-2.61,2.78-3.3.55-1.87-.44-0.68-1.5-1-3.61-1.69-4.94-3.67,0-21.18,9.82-15.75,16.63-0.17,1,4-4.68,5.63-6.5,3.53,6.25,10.06,2.22,12.38,10.78-6.62,3.18-4.24-1.17-2.81,5-1.9.44-4-.18-5.81,0.88,6.38,1.74,10.05,6.35,5.81,5l0.38,3.16c-2.8-2.12-2.56-2.23-5.62-2.94,3.52,2.1,6.26,6.83,3.56,7.88,0.17,0.8-3.08,6.22,0,12.59,3.18-1.36,2.28-3,3.94-5.84a3.72,3.72,0,0,0,2.06,4.5c-1.88,0-2.46-2.12-3.37,1.13,1.64,1.69,1.35,2.21-1.5,2.25-0.31,1.3-.61,1.94-0.94,3.16,1,1.24,0,5.76-2.44,4.94,2.37,2.08,2.43,2.74,6.19,4.72a4.6,4.6,0,0,1-1.06,1.84,15.38,15.38,0,0,0,1.62,2.1,27.73,27.73,0,0,1-3.18,2.59c3,2.4,4.15,6.44,7.13,8.56-3.23.95,4.45,5.79,4.31,7.41,1.38-1.16,1.68,7.57,3.75,6.53-4.76,5.57,1,5.47,3.25,3.09,0.8,0.48.82,1.17-2.12,1.62-0.14,3,.32,4.11,2.06,6.75-0.9.34,3.38-.18,3-2.91a55.58,55.58,0,0,0,15.38-3.84c-3.29,4.13-6.46,8.87-8.06,6.09-1.6.34-4.06,1-4.31,0.22l-2.25.91c0.87,2.07,9.71,6.6,9.71,6.6l1.4-.37-2,.5a27.06,27.06,0,0,1-3.41,1.64l0.5,0s0.91,2.21.91,2.21l2.17,1.56,3-.16,2.81-.15-1.91,1.55,2.81-.15,2.66,1.08,3.14,0.68,1.77-2.11,1.72,1.76,1.88-1.31,1.44,2.22,2.44,1.09,2.69,0.84,3.14,0.68,1.92-1.59,2.41,1.34,0.19-1.52,0-.25,0.57,0.57,2.9,0.86,3.21,0.15,2.69,0.87,2.9,0.86,3.42,0.18,2.93,0.62,3.14,0.64,2.69,0.87,2.14,1.81,3.18,0.4,2.85-.43,2.81-.15,2.67-.71,2.87,1.15,3.21,0.11,1.73-1.83,1.77-2.11-3.15-.64-3.21-.15-3.18-.4-2.41-1.34-2.45-1.06-2.17-1.56-2.2-1.31-1.68-2-2.38-1.59-2.17-1.56-2.21-1.28-2.17-1.56-2-1.54-1.2-2.48-1.93-1.78L2725,3022l-1-2.7-1-2.42-3.18-.4-1.92-1.82,1.73-1.83,2.85-.43-1.16-2.73-1.47-2-1.44-2.26-0.42-.05-1.14-.46a11.75,11.75,0,0,0-10.76-5.2c2.38-.15,4.64-0.77,7.13-0.91-0.25-5.38-2.55-5.75-4.87-7.19,2.36-7.57,16-14.4,4.69-15.06,3-.1,4.94-0.91,3.75-3.62,6.07,8.35,12.2,2.9,12.56-6.28l-2.25.91c3.84-8.27,32.61-22.76,17.06-22.06,22.93-5.23-11.6-14.51-13.69-20.69-4.45-13.14,13.5-20.78,23.25-21.16,2.61-8.27,1.67-24,15-27.91-3-1.2-5.2-3.84-7.31-4.94,5.92-1.72,10.9,4.38,14.06,2.25,6.71-4.51,1.08-10.52-5.44-8.56,0.61,4.75,1.22,1-4.5,2.69-0.72-.57-11.34-18.06-5.62-22.94,3.88-3.31,14.89,5.44,21.19,4.5,20.5-3.06,7.94-27,16.22-31.61,10.26-5.75,31.11.34,43.59-6.63,19.7-11,19.61-24.06,11.81-39.09-1.22-2.35,3.59-3.54,1.5-6.82-1.61-2.54-5.5-3.45-6.75-5.84-1.76-3.35-6.36-4.2-8-8.56-3.73-10.07,3.58-17.45,2.91-26.53,3.92,15.49-8.31,18.59,9.84,28.78,8.4,4.72,23.65,9.55,33.23,5.59,16.71-6.91,24.17-27.12,30.86-42.42l0.12,2.2c15.88-9.85,26.66-32.43,35.81-47.94,7.89-13.37-.24-32.68,8.06-45a11,11,0,0,1-3.94-2.25c8.6-.87,14.13-12,22.5-17.56,7.83-5.23,17-8.62,27.56-13.25-0.8-6.82,7.24-4.91,7.5-3.84,5.32-1.27,7.87,1.09,9.56-4.72,9,18,37.63-35.09,40.64-46.47,6.84-25.81,3.64-53.56,9.61-80-2,1.6-1.74,2.09-2.25-2.72,0.37-.44,2.51-10.2,4.31-14.62,10.25,8.26,12.31-14,16.13-20.36,3.51-5.86,17.19-13.62,17.63-24C3127.26,2390,3127.85,2341.28,3114.27,2330.41ZM2838.1,1476.26a21.46,21.46,0,0,1-8.1,1.43A48.4,48.4,0,0,0,2838.1,1476.26Zm-135.3-70.15c0.38,0.06,2.57,2.38,3.72,2.67-3,.73-6,1.46-8.41,1.14C2701.55,1410.22,2703.66,1409.41,2702.8,1406.11ZM2624,1723.91c-3-1.63-6.5-3-9.85-5.3C2618.52,1720.53,2620.95,1719.9,2624,1723.91Zm-75.1,129c0,0.33.09,0.66,0.12,1A1.42,1.42,0,0,1,2548.86,1853ZM2480,1311.36h-4.12a24.44,24.44,0,0,0,5.09,2.58c-12.52-2.69-25.33-4.88-36.4-7.52C2457,1308.61,2467.75,1308.79,2480,1311.36Zm-63.19,21.16a70.11,70.11,0,0,0,12.92,5.1c-4.94-1-9.81-1.39-13.86-2.63C2419.85,1334.76,2416.77,1334,2416.86,1332.52Zm-793.12-86.84c-0.77-3.47-5.33-2.65-2.13-5.4a19.86,19.86,0,0,0,4.76.61C1624.09,1241.36,1623,1242.84,1623.74,1245.67Zm-19.55,211.25a7.18,7.18,0,0,1,2.49,0C1605.72,1457.48,1604.82,1457,1604.19,1456.93Zm265.23-60.24a32.29,32.29,0,0,0-1.72-3.08,12,12,0,0,1,5.42,1.25C1871.17,1394.13,1869.92,1394.77,1869.42,1396.68Zm77.95-133.45c0.43,1,3.12,1.41,3.94,2.25-3.69.1-7.16,0.27-10.69-.69,4.34-3.13,10.4-5,16.82-6.8C1956.84,1259.41,1952.38,1261,1947.36,1263.23Zm16.88-5,0.63-2.26,1.38-.38C1966.75,1257.27,1966.62,1258.14,1964.24,1258.27ZM2657.16,2922a21.56,21.56,0,0,1,3.63-2.72A7.56,7.56,0,0,1,2657.16,2922Zm8.88,92.9c0.11-.26.87-0.21,1.6,0H2666ZM2917,2714.44c2.75-6.21,5.42-11.51,8.58-14.58-0.25-3,.22-5.33,0-8.12,2.23-.05,6.23-0.38,7.31-0.22C2934.62,2697.7,2925.27,2713.53,2917,2714.44Z" transform="translate(-1521.6 -1085.63)" fill="none" stroke="#000" stroke-miterlimit="10"/>
    <path d="M2443.86,1985.48c0.51-.31,1-0.63,1.44-1l0.25-.64Z" transform="translate(-1521.6 -1085.63)" fill="none" stroke="#000" stroke-miterlimit="10"/>
    <path d="M2371.34,1945.92c0.28,1.09.58,2.2,0.9,3.32A25.09,25.09,0,0,0,2371.34,1945.92Z" transform="translate(-1521.6 -1085.63)" fill="none" stroke="#000" stroke-miterlimit="10"/>
    <path d="M2463.17,1822.62l1.51,0C2463.8,1822.27,2463.36,1822.34,2463.17,1822.62Z" transform="translate(-1521.6 -1085.63)" fill="none" stroke="#000" stroke-miterlimit="10"/>
    <path d="M2698.9,1651.64c-0.23-.31-0.49-0.63-0.79-1A2.21,2.21,0,0,0,2698.9,1651.64Z" transform="translate(-1521.6 -1085.63)" fill="none" stroke="#000" stroke-miterlimit="10"/>
    <path d="M2371.67,1890.3l-0.1.13c-1,4.5-2.17,9.45-2.9,15.4C2369.92,1900.75,2370.51,1895.39,2371.67,1890.3Z" transform="translate(-1521.6 -1085.63)" fill="none" stroke="#000" stroke-miterlimit="10"/>
  </g>
  <path d="M5357,1632.69c-7,6.12,2.71,18.51,2.64,28.4-0.1,14-3.82,14-19.42,16.49,1.64,1.33,3.12,3.07,4.75,4.47-11.82,8.77-10.58,15.31-1.18,21.53,6.32,4.18-3.76,4.58,7.88,2.42,1.66-.31,7.67-7.86,12.77-8.43-3.45-.84-15.58-0.27-17.36-2.05-7.91-7.93,5.16-4.88,7.94-6.65,9.82-6.24,18.83-5.84,31.77-6.25,19-.6,9.82-5.09,21.32-17,9.19-9.52,22.5-6.89,29.45-18.5-7.84,5-14.5-4.94-11.19-13.81C5413.87,1658.72,5376.23,1638.54,5357,1632.69Z" transform="translate(-1521.6 -1085.63)" fill="none" stroke="#000" stroke-miterlimit="10"/>
  <path d="M5360.4,1705.24c-0.51,3.13-.79,5.38.9,8.36,2.66-1.39,6-1.85,8.52-3.31-0.89,5.88-3.16,7.63-8.16,10.11-14-21.42-9.63,20.3-12.8,24.62,24.59-4.38-13.23,101.91-36.13,71.77,5.46-5.08,2.6-3.48,4.33-9.62-7.51,3.6-9.31,22.38-11,30.83-0.76,3.83,1.06,13-.22,14.75-4.64,6.33-12.83,8.43-16.16,1.46-14.87,11.12-34.83,12.45-46.69,23.5-4.73,4.4-8.14,13.6-13,18.82-6.19,6.67-16.64,10.53-9.89,19.56,5.46-3.45,15.44-8.82,23.3-4-2.16-16.92,42-32.6,59.29-36.69-5.11,8.58-.61,25.37,12.44,21.46,10.13-3,4.05-20.18,17.48-23.64-8.4-2.5-13-8.63-4.68-14.46,0.21,3.75,1.5,3.75,3,6.67l-0.49-4.31c6.17,1.38,4.63,2.57,5.18,5.33,6.28-4.18,13.61-4.66,20-8.54,6.73-4.05.13-12.14,11-10.59-2.13,18.18,5.33-9.62,13.65-9.67-1.32-7.21-2.36-9,5.21-7.1-2.64,5.93-2.09,8.27,2,12.49,8.1-7,2.88-15.31,11.87-21.55-14.84-6.76-5.67-18.06-7.12-28.23s-15.5-25.65,2-28.93c-6.49-9.73,4.46-20.34-1.94-31.56-7.29-12.78-18.71-11.37-20.78-28.23C5366.71,1707.49,5365.77,1704.64,5360.4,1705.24Z" transform="translate(-1521.6 -1085.63)" fill="none" stroke="#000" stroke-miterlimit="10"/>
  <path d="M5294.18,1904.58v0Z" transform="translate(-1521.6 -1085.63)" fill="none" stroke="#000" stroke-miterlimit="10"/>
  <path d="M5294.19,1891.72c-2.7,1.45-7.71,6.26-7.52,6.19-3.31,1.17-9.66-2.36-11.13-1.68-5.12,2.36-10.63,9.14-18.52,10.62,12.22,1.75.58,14.66,14.73,12.6,7-1,13.06-20.71,21.16-4.21C5301.62,1907.5,5313.25,1896.59,5294.19,1891.72Z" transform="translate(-1521.6 -1085.63)" fill="none" stroke="#000" stroke-miterlimit="10"/>
  <path d="M5260.69,1922.92c-10.34-2-19.7,7.49-27.4,1.62l-3.55,5.73-4.25-3.29c-1.66,5.41-.92,9.77,1.49,15-6.1-5.47-7.51,1.23-8.86,7.61,3-1.19,6.43-.75,9.48-2.24,5.32,13.09,7.33-3.62,10.24-9.61,8.83,19.71-7.29,20.76-16.38,32.39-1,1.31-7.47,20.71-8.3,18.35,3.11,8.85,11.06-1.3,17.28-5.17-4.86,4.24-3.58,9.16-7.38,15.89,6.31,3,11,1,13.72-5.63,8.78,6.79,17.86-14.79,25.29-21.94,9.43-9.08,23.5-12.36,7.25-25.17C5286.62,1940.87,5263.47,1935.66,5260.69,1922.92Z" transform="translate(-1521.6 -1085.63)" fill="none" stroke="#000" stroke-miterlimit="10"/>
  <path d="M5367.92,2591.26c-6,6-6.78,16.85-6.53,25.12l-2-1.74c-3.09,6.28-1.51,12.73.65,16.92-11.66.56,1,75-17.4,87.09-11.78,7.73-22.53-7.48-29.58-14-8.61-8-20-14-29.58-21.63-18.95-15.18-8.76-17.29-5-36.81l-2.18,1.74c-0.79-6.44.75-8.63,6.31-12l1.31,2.64c1.69-7,4.6-13.45,5.44-19.56l-2.39,1.46c-0.41-1.79-.54-6.3-1.31-7.63-2.17,4.44-10.63,0-9.79-2-9.61,21.11-40.13-6.59-51.33-12l-1.09,3.21-1.74-2.35c1.87,6.42,9.88,7.26,10.66,18.14-6.7,2-16.43,6-20.45-1.74-1.54,1.84.45,5.58-3,2-0.81,4.25-1.5,4.85-1.52,8.77-1.7-.86-3.21-1.91-5-2.64l0.22,4.38c-5.09.76-20.58,30.1-12,34.78-3.18,3.55-4.74,6.16-7.4,5,0.94,3-8.3-3.85-10.88,3.81l-2.18-1.46c-0.63,2.77-8.9-17.47-18.49-23.09-1.54,2.44-4.54,5-5.44,7.59l-1.09-2.92c-1.95.46-7.82,11.43-11.75,12l-0.22-4.38c-5,2.16-7,7.09-3.48,14-2.84-.66-2.47-0.15-5-1.74l-2.18,1.46c2,3.06-10.25,12.82-2.39,14-4.72,5-7.43,7.57-11.31,10.23a43.2,43.2,0,0,0-2.83-5c-1.6,2.88-2.56,5.28-3.26,6.74,2.1,4.86,4.4,5.16,7.18,5.56-2.66,3.09-.92,6-5.22,5,0,2.87-7-5.54-9.14-12.58-2.46,6.44-7.26,7.23-9.19,14-2,7,1.12,13.89-.49,19.95s-12.48,22.3-18.27,26.8c-8.64,6.72-20.19,6.18-27.84,9.27-9.35,3.78-18.33,11.47-28.17,10.69l-0.87-3.53c-11,9.91-38.8,28.82-39.15,24.84-5.23,11.93-8.34,32.38-8.37,45.31,0,11.52,1.64,30.42-1.63,36.79l-0.44-3.77c-0.61,17,17.42,40.3,21.75,57.26,4.77,18.67,15.46,49.77,12,68.66l-0.65-3.81c1.45,7.75,1.35,23.19-9.14,17.53-6.62,23.23,29.9,30.93,46.22,25.57,10.39-3.42,13.44-13.85,21.21-17.08,8.79-3.66,22.25-1.75,30.56-1.6,12.67,0.23,16.33,1.09,26.75-7.16,7.71-6.1,10.66-13.62,22.08-18.1,14.85-5.83,38.66-13.56,56.55-17,14.53-2.76,20.77.2,32.84,4.1,7.59,2.45,26.59,3.27,26.75,13.15,0.45,0,25.14,44.57,29.15,46.18-4.34-16.68,24.32-28.31,25.67-45.9,2.77,11.64-1,15.87-3.15,26.15-2.71,12.8-6.45,15.26-9.24,25,14.27-1.7,10.21-9.9,17-20.45,5.59,8.16,7.63,18.33-.22,25.44,6.81,2.6,22.39-9,14.14,2,3.59,2.57,4.46,5.77,6.74,9a26.9,26.9,0,0,0-5-7c14,17.44,3.17,37.08,28.55,46.63,3.12,1.17,17.27,6,24.41,7,10.89,1.53,28.56-9.55,22.95-5.71,3.21-.78,4,1.06,8.92-2,2.39,7.88,9.21,10.37,14.14,16.92,0.09,0.24,13.94-19.84,24.69-23.94,16.65-6.36,19.85,2.6,24.69-15.79,5.81-22.1,10.13-46.23,19.58-65,4.75-9.46,12.62-18.66,17-27.59,5.87-12.07,7.11-22.25,8.92-35.06,4-28.28,3.9-52.19-2.39-79.5a83,83,0,0,0-16.75-33.28c-4-4.75-9.88-6.44-12.72-12.44-3.44-7.27.37-14.81-4.89-21.49l0.22,4.38c-2.37-2.84-5.95-4.55-8.27-7.3a25.21,25.21,0,0,0,.44,7.91c-6.44-5-13.8-26.31-16.31-32.14-4.61-10.71-3-18.59-16.53-20.45-3.43-9.1-9.7-6-15.12-12.42-4.55-5.41-5.95-13.9-7.07-20.61-2.7-16.19-7.42-29.07-10.22-45.86-1.49-8.9.75-10.17-6.09-17.1-5.79-5.86-13.68-3.44-14.46-4.38-5.48-6.59-10.33-40.19-8.16-46C5370,2611.8,5372.76,2597.45,5367.92,2591.26Z" transform="translate(-1521.6 -1085.63)" fill="none" stroke="#000" stroke-miterlimit="10"/>
  <path d="M4894.32,2457.62c-4.6,8.6-11.91,24.15-16,28.06-6.24,6-14.14,7.79-22.35,17.1-9,10.21-14.56,10.25-24.27,17.48-6,4.47-13.27,17.32-6.46,22.12-8.17-2.26-16.06-3.36-20.92-9.93-4.13,3.37-6.78,35.83-3.16,40.49-0.49,2.17,5.37,10.18,7.7,15.64s3,14.43,2.57,19.88c7.76,1.4,21.52-4.85,20.33,7.83,9.93,0.16,18.16-11.27,23.48.23,4.79-2.37,7.9-1,10.85-2.14-0.37,4.37,1.82,8.64,2,12.79,11.29-7,20.86-11.14,20.13-25.1,4-3.7,1.78-14.2,5.33-20.85,13.23,0.7,9.28-23.63,15.59-32.66,20.89,12.27,2.3-7.9-.79-13.21-0.47-.82-2.76-12.06-3.55-15-1.32-4.84.28-12.64,2.76-12.79-4.57-6-1.6-4.25-2.76-10.43,5.11,2,7,.06,12,0.49-2.76-3.17-2.37-7-3.95-9.47,17.94,3.79,10.67-12.19-3.16-10.66,0.74-2.16,1.89-2.77.59-5.23-2.35,1.29-5,1.44-7.3,2.6,4.9-5.89,1.26-11.9-3.55-17C4898.41,2459.8,4895.07,2459.58,4894.32,2457.62Z" transform="translate(-1521.6 -1085.63)" fill="none" stroke="#000" stroke-miterlimit="10"/>
  <path d="M5066.38,2356.49c-3.52,2-13.38,5.74-15.39,8.89-6.79,10.61.83,6.84,3.26,10.73,7.59,12.11,13.71,15,29.47,11.57-1.63,3.48-13.09,5.43-18,9.41-8.32,6.71-1.66-1.08,1.66,9.15,6.71,20.67,6,11,15.59-4.56-7.47,11.29,3.74,17.66,10.72,16.39,0.08,6.26,38.86,25.5,44.62,30.1-1.88,7,6.8,26,4.87,26.63,4,3.25,2.25,6.34,3.7,9.67-1.48-17.61-15.62,1.71-16.37,10.75,5.9-1.36,18.15-6.09,19.1-8.07,3.41,2.52,4.12,5.68,10.52,1.34,2.36,13.89,12.29,20,25.53,19.9,14.62-.12,21.62-13.44,3.51-15.87,7.17,2.1,14.41,1.64,13.25-5.64,0.93,0.31,3.83,2,4.68,1.87,0.82-3.71-.34-5.86-1.17-9.41,4.14,3.31,6.15,6.08,9.94,0,4,3.69,14.4,5,19.1,10,5.31,5.68,8.74,16.88,11.3,20.69,10.94,16.23,21.46,14,38.78,20.43,1.51,2.31.62,4.65,7.6,1.34,0,0-2.83-3.24-2.92-4,1.35-.11,4,0.88,4.48-1.34-6.87.08-15.06-3-9.35-9.11-7.62-.35-12.54-3.91-9.35-11.58-11.57,4-13-10.59-18-18.43-1.73-2.72-7.42-6.36-8.72-9.93-3.63-10,2.44-8.15,3.07-11,0.76-3.4,7.1-1.94,2.68-10.56-1.6-3.12-9.51-4.83-12.86-7.39-3.69-2.82-8.76-3.54-10.52-5.92-2.06-2.79-2.61-11.67-5.55-16-8.9-13.09-30.52-19.65-45.89-27.56-8.9-4.58-15.92-4.84-24.85-9.39-6.23-3.18-16.68-14.24-23.77-13.18s-16.29,16.81-21.44,21.38c-11.4,10.12-13.31,13.59-18.12-5-1.23,2.38-.9,4.18-1.17,6.72-5.23-10.28-.31-21-4.19-29.72C5082.55,2361.64,5075.16,2361.09,5066.38,2356.49Z" transform="translate(-1521.6 -1085.63)" fill="none" stroke="#000" stroke-miterlimit="10"/>
  <path d="M4862.48,2686.27c-1.24,6.23-3.53,13.1-8.23,14.72,13.18-2.39,17.39,3.13,29.71,4.88,11.84,1.68,18.55-1.88,30.43-1.83,21.3,0.1,42.6-.84,62.08.9-3.5-6.31-3.87-12.15-9.4-14.88-2.2-1.09-13.09,2.13-16.69,1.31-0.19,0-9-6.5-11.61-7.61-3-1.25-14.83-3.49-16.37-3.11-2.07.51-5.16,7.68-11.3,9.58-6.71,2.07-11.26,0-16.27-.86-4.34-.73-9.39-4.45-15.75-4.85C4873.24,2684.15,4869.78,2687.44,4862.48,2686.27Z" transform="translate(-1521.6 -1085.63)" fill="none" stroke="#000" stroke-miterlimit="10"/>
  <path d="M4710.59,2543.81c-8.76,13.67,37.65,53.18,43.22,65.2,11,23.66,22.19,51.46,39.37,73,10,12.6,24,22.85,32.86,37,0.68-2,1.54-3.45,1.78-6.15,1.69,0.66,3.79,3.38,5.53,4.28,0.61-1.21.26-4.7,1.78-5.46,1.75,2.8,4,4.18,5.72,6.87,2.88-11,3.8-28.18,2.71-38.08-0.73-6.62-7.68-25-17.12-11.19,12.52-14.25-17.66-25.12-12.83-33.84-2.44-.79-2.52-0.56-1.18-2.86l-2.57.72c12.38-5.45,1.69-15.07-7.89-7.6,8.91-5.92-15.05-22.93-21.91-31.25-1.72,3,0,3.66.39,7.1-9.86-13.71-23-22.47-34.14-35.75-5.74-6.83-4.27-11-13.42-15.41C4726.11,2547.13,4717.87,2548.17,4710.59,2543.81Z" transform="translate(-1521.6 -1085.63)" fill="none" stroke="#000" stroke-miterlimit="10"/>
  <path d="M3641.73,1599.34l-1.5,1.53c2.15-1.32,3.91-1.69,5.44-3.85A37.83,37.83,0,0,1,3641.73,1599.34Z" transform="translate(-1521.6 -1085.63)" fill="none"/>
  <path d="M3621.1,1609.61c2.44,0.09,3.52,1.29,6.19,1C3623.82,1607,3623.22,1609.69,3621.1,1609.61Z" transform="translate(-1521.6 -1085.63)" fill="none"/>
  <path d="M3972.66,1324.79a8.37,8.37,0,0,0,4.69-1.78Q3975,1323.79,3972.66,1324.79Z" transform="translate(-1521.6 -1085.63)" fill="none"/>
  <path d="M3578,2359.79a5.51,5.51,0,0,1,4.31,2.07A4,4,0,0,0,3578,2359.79Z" transform="translate(-1521.6 -1085.63)" fill="none"/>
  <polygon points="3094.57 172.92 3093.44 172.39 3094.94 174.46 3094.57 172.92" fill="none"/>
  <path d="M4607.91,1255.45A24.42,24.42,0,0,0,4615,1258c-4.17-1-7.35-3-9-6.14C4604.8,1254.1,4605.36,1255.33,4607.91,1255.45Z" transform="translate(-1521.6 -1085.63)" fill="none"/>
  <path d="M3645.29,1596h0Z" transform="translate(-1521.6 -1085.63)" fill="none"/>
  <path d="M3685.79,2484.89c1.85,0.49,1,3,4.13,1.53-3.17-3.16-1.49-1.86-2.81-4.64-2.34,2.64-1.91.57-3.56-.5A15.79,15.79,0,0,0,3685.79,2484.89Z" transform="translate(-1521.6 -1085.63)" fill="none"/>
  <polygon points="4150.76 311.07 4148.13 311.36 4151.13 311.36 4153.57 310.32 4153.01 310.32 4150.76 311.07" fill="none"/>
  <path d="M5004.29,2030.31c1.73,1.32,1.56,3.12,4.13,2.57A30.49,30.49,0,0,1,5004.29,2030.31Z" transform="translate(-1521.6 -1085.63)" fill="none"/>
  <path d="M5691.3,1372.59c-10.37-3.69-14.42-14.45-26.61-14.66,1.74,0.59,5,1.15,1.76,2.07-4.1-2.25-2.94.87-4.62,1.28-3.52-2.86-4.75-6.08-11.81-3.85,5.56,3.56,7.05,8.49,4.62,13.88-3.59-3.49-7.36-8.91-7.74-19.8a3.47,3.47,0,0,1-3.53,1.53c0.53-9.75-21.71-17.32-28.78-19.51-0.84-3.84-9.35-7-15.75-9l1.76,1a17.51,17.51,0,0,0-9.91-5.92l1.9,0.54c-16.4-7.18-32.14-8-48.87-9.24,0.06,2.48-21.74-9-25.25,3.07,6.65,4.94,7.41,11.83,3.12,15.91-9.61.3-13.57-7.4-20.57-10.92-5-2.53-4.11-1.54-9.16-2.68-2.82-.64-11.08-0.17-14.53-0.25-7.75-.18-19.4-5.15-26.74-1.55-9.86,4.84-5.3,15.46-14.53,19,8.43-5.53,2.57-21.11-9-20,1.26-3.15-.49-5.21-0.41-6.42,19.82-15.51-66.27-12.36-69.78-13.88a9,9,0,0,0,4.21,0c-4-6.58-10.62-7.8-17-4.39,5.11-6.23-5-6.05-11.4-8.7,3.8,0.4,6.9-1.15,10.45-1.57-15.19-19.43-29.79,3.89-45.07,3.35,2.38-1.86.84-2.09,0.54-4.1,7.49-1.19,3.86,1.07,6.92-4.39a2.94,2.94,0,0,0,3.67.29c0,1.44-1.54,3.19-1.9,4.6a32.91,32.91,0,0,0,7.87-5.89c-7.66-1.44-16.4.59-23.62,0,7.6-3.43,14.49-1.56,23.35-1.57-17.62-6.1-36.63-4.77-54.3-9,1.45,1.79,2.71,3.05,4.07,4.89-7.21,1.93-13.87.63-20.1,5.14,3.14,1.9,7.26,2.08,12,1a49.06,49.06,0,0,1-8.62,4.35c3.76,2.22,5.22,3.46,7.5,7.7-9.49,1.8-17.16-5.66-24.75.78,2.37,2.84,2.36.28,4.69,1.78-7.87,5.33-24.17-4.8-35.67-4.16-12.08.68-22.09,7.11-33.52-5.33-4.32,5.1-6.36,6.23-5.44,11.06-14.82,11.93-25.63,4.41-38.44-5.92,1.83-3,3.51-2.21,6.56-2.07-1.8-1.59-3.51-3.17-5.25-4.85-1.14,7.53-16.68-6-25.87-6.42,1.77,5.14,2.29,8.88,4.5,13.84-9.79-24.81-65.91-20.93-88.87-23.86a16.26,16.26,0,0,0,7.5,2c-6.86-.55-35.7-6-18.75-9.24-17.93-7.73-45.54-3.4-64.5-1,1.13,2.3,2.56,1.52,4.13,2.85a16.25,16.25,0,0,0-7.31,7.7c2.88-6.43,1.36-12.19-4.12-17.48-4.45,6.13-17,4.43-18.19-.78-6.6.65-15.13-1.9-21.94,2.57l0.94,2.57c4.53-.76,9.64-0.2,14.06-1.53-5.84,4-12.34,5.74-19.12,3.85-0.28,2.11-42,12.28-49.12,12.59,18.48-9.5,36.17-17.88,57.19-23.9l-2.25-1c11.11-3.38,23.25-5.8,33.28-10.54,16.63-7.87,12.18-7.91-.66-14.89,4.58,0.63,9.13,1.84,13.69,2.82l-1.69,1.78c3-1.68,3.91-2,4.88-5.89-3.23-2.5-6.57-4.84-10.69-5.67,0.85,5.71-5-2.91-12.56-1.78,0.79-13.23-56.61-2.34-66-2.32,3.84-1.41,7.36-4.08,11.06-5.89-6-4.45-14.87-2.7-22.87-2.07q2.54-.75,5.06-1.53c-6.6-.41-12.86-0.2-19.5-0.25,8.43-.83,16.1-3.84,24.38-4.39-20.27-10.59-45.51-4.28-64.12,6.42-0.37,3.81,1.82,2.11,3.56,3.35,0,0.05-3.62,4-3.56,3.32,4.34,0.86,9.19,2.23,13.69,2.32-12.08-1.17-24.63.12-36.75-1.53,6.62,2.9,15.24,9.52,3.19,13.63,3.24,2.38,6.81,6.21,10.69,8.2-4.75-2-7.39-5.15-12.75-6.17,14.29-9.33-3.21-11.92-13.12-9.49l2.63,0.75a63.79,63.79,0,0,0-8.06.78l2.81,0.25c-5.42.64-10.21,1.44-15.56,2.57,0.51-3.08-3.57-1.9-8.25-.25a27,27,0,0,1,3.75-3.07c-12.66-2.66-26.93-.75-38.44,1.53a37.34,37.34,0,0,0,13.13,1c-19.74,4.68-42.66,6.89-62.06,8.2l3,0.25c-8.23,3.51-16.12,5.78-25.31,4.39,2.14,0.24,5.44,1.33,7.69,1.78-4.16,1.71-5.72,3.37-9.94,5.39l2.06,1.28c-5.89-1.64-8.4-1-13.69-.5,6.61,0.69,11.83,2.06,16.88,4.89-4.2-.53-9.31.41-13.87,0a73.85,73.85,0,0,0,14.81,5.14c-0.44-.66-3.92,2.52,2.63,2.82-4.88,5.28-12.06,5.6-19.31,6.17,2.35,2.24,7.08,6.45,10.5,8.2-14.75-5.17-10.11-10.36,3.56-13.63-14.55-2.94-72.84-1.46-81.94,8.24,3.93,1.58,2.91,8.51,6.94,11.81,4.84,4,8.51,2.71,14.58,5.45,7.32,3.31,24.08,9.12,13,19.2,7.84,4.65,10,14.13-2.06,12.84,0,0.29,2.72,3.77,2.81,4.1-12-3.83,5.77-10-2.34-14-6.55-3.18-8.75,7.23-7.78,11.69-4.1-11.93.66-17.84,11.81-23.9-11.67-3.71-22-3.24-33.56-7.46-11.83-4.32-25.39-6.76-36.94-.5,3.15,0.52,6.3,2.31,9.19,2.82-5.68,3.39-32.65-5.25-21.09,7.32,3.8,4.13,27.07,8.74,29.34,8.87-8.22,3.52-35.13-2.21-44.06-7,1.09-4.58,8.7-16.88,1.31-20.8l2.25-.78a15.11,15.11,0,0,0-7.69-1.78c9.12,14.84-15,15.3-22.5,23.36,27.32,10.2-3.84,29.56,11.2,38.21,5.76,3.31,19.95-2.14,26.86-1.61,10.89,0.84,18.54,6.24,23.44,14.77-20.94,5.5,3.88,10.35,10.88,12.09-8.11.48-16.43,0.48-23.62-3.85,8.19-11.68-5.24-21.23-19.31-18.26-11.14,2.35-7.81,3.25-11.62,10,0.29-.51,4,6.11,3.52,7.91-1.07,3.8-5,2.78-6.7,5.46-10.3,15.93-46.84,31.32-62.44,11.57,7.17-2.14,13,.11,19.5.5-0.86.87-3.33,1.74-4.31,2.07,5.19,2,9.66,1.34,15-.29-0.83-1.84-1.8-3.18-2.62-4.85,8.57-1.11,24.85-14.13,24.42-23.38-0.36-7.78-7.44-3.69-9.8-10.79-2.21-6.66,2.64-13.48-1.12-20,9.15-8-1.66-11-2.44-16.41-1.13-7.91,5.65-5.8,6.09-15.55,0.76-16.49-25.41-12.07-38.16-11.41-1.8-8.09-10.5,14.66-14.81,18.73-4,3.78-32.83,14.66-12.75,15.41a60,60,0,0,1-1.5,13.38c-4.35,2.24-1.69.9-4.12,6.92,14.53-5.74,14.46,12.63,28.13,10-2.2,4.19-5.52,9.7-10.5,12.59-8.21-11.32-33.42-16.84-44.81-20.56-14.14-4.62-40.92-11.27-52.69-2.55,8.7,7.4,12,16.47-4.5,15.41-1.42,7.37-10,5.58-4.31-1-1.83-2.49-3.72-2.63-6.37-3.6l2.63-.5c-5.17-.85-9-0.27-8.44,3.32-8-1.17-22.34,1.38-31.22,2.76-5.17.8-9.61,6.42-12.47,7-4.58.95-11.13-2.1-17.06-1,5.86-2.21,5.88-4.25,8.06-10l-2.62-.75c2.31-.64,5.28-1.65,7.69-1.57-8.82-.66-17.28,2.58-25.31,5.92,0.8,1.18,3.19-1.15,4.13,2.07-3.48,2.2-2.66,1.92-6.37,2l1.88-1.53c-4.59.3-.88-0.52-0.94-1.78-12.16,3.67-29.55,12.32-41.81,11.27,0.2,3,1.6,2.28,3.38,3.6-14.93-3.29-12.15,9.52-23.72,13.36-11.2,3.71-16.88-4.2-25.41-9.51,5.42-6,13.43-5.74,21.38-7.46-10.75-15.39-25.11-7.27-40.31-13.09,5.2,3,10.48,7.48,12.75,10.27-8.37,7.6-2.76,10.88-2.72,15.3,0,0.89,3.48,6.56,3.56,8.2,0,0.89-3.77,8.57-4,10.92-2-3.37-4.92-4.11-8.44-2.32,1.28-12.57-21.67-2-28.5,1.53-17.57,9.13-13.35,7.29-6.37,23.65-8.64.18-21-5.61-28.69-1.28-1.11-8.12-14.11-10-20.44-4.64,4.47,7.23,31.26,15.45,11.53,18.51-9.34,1.45-29.88-12-28.78-15.69h-3c-0.39-1.79.78-5.73-3.37-9.74,3.75-2.88,1.21-3.3,2.63-6.67l2.25,1c-2.55-7.14-9.65-9.43-16.87-10,3.86-3-.42-3.16-4.5-3.1a4.6,4.6,0,0,1,5.06-.25,4.82,4.82,0,0,0-5.06-1.28c-0.14-.64-8.44-6.72-14.81-9.24,12.95-1.44,32.29,10.1,45.38,12.84,14.56,3,32.14,7.18,46.59,3.19,51.08-14.08-9.13-36.05-29.91-44.28-13.83-5.48-35-11.93-46.87-3.1a19.87,19.87,0,0,1,4.69-1.78c-1.11-4-2.52-3.09-7.31-2.57,0.64-3.62-3.51-3-8.44-1.53-0.06-.09,3.15-2.65-2.25-2.32,2.57-.26,9.63-2,13.31-2.57-10.46-4-23.43-2.31-32.25.78l-0.94-2.85c-3.2,1.92-14.4-3.61-19.31-4.1,10.13-.28,18.79,1,27.75-4.35-4-2.7-7.71-3-12.37-2.82,0.91-1.46,4.17.36,1.31-2.85-10,2.56-20.85-8.39-24,10,1.52-4.55.54-6.14,0.56-8.2-2-1.39.76-4.45,4.13-5.67a21.91,21.91,0,0,0-16.31-.5c1.53,1.5-.6,5.51-6,9,0.76-4.59-1.43-2.2-3.37-3.6,1.84-2.33-15.73,4.27-15.75,2.82,3.5-1.88,6.54-4.95,10.13-6.67-3.53.3-4.5-1.11-6.75-1.53l-0.94,2.82c-4.38-2-5.09-2-10.31-.75,0.74,0.92,3.11,2.33,3.56,3.07-4.15-.43-7.25-0.23-5.06,2.82-7.58-.56-12.07,2.43-10.5,7.46-3.35-.18-8.28.35-12-0.5,0.72-.71,4-0.82,5.06-1-6.09-3-3.72.18-3.56,0-4.66-3-10-3.47-16.12-1.28,3.38,1.7,6.3,1.4,9.75,1.78l-2.25.78c2.35,0.44,2.53,1.74,2.81,4.35-6.82-4.23-12.49-3.63-18.19,1.53,1,2,2.19,1.49,3.56,3.1-3.48,1.3-5.76-.63-9.19,2.82,2.55-4.39,1.72-6.19,2.81-10.52-4.59,3.68-5.86,4.34-8.06,8.74,0.11-1.77,1.25-3.92,1.69-5.67-10.48-.65-15.56,10.38-18.37,4.89-2.81,3.61-1.87,2.28-1.12,5.39a13.08,13.08,0,0,0-7.31,2.32c1.23,2.46,1.65,1.78,2.06,3.85-2-.14-3.25-0.66-5.25.25,1.66,0.94-6,.2-9.37,5.39,5.42-.87,10-0.18,14.25.29-5.4-.6-3.37,2.21-3.75,2.57-4.33-1.47-8.3-2.3-12.94-1.57,2,1.21-.33,3.54,3,4.64-4.53,2.29-16.62,4.06-21.19,4.89,0,0,6.19,3.26,5.44,3.6,2.76,1,.11,1-3.56,1.53,0.75-.34-1.44-1.65-0.19.5-2.68.9-4.34,0.78-6.56,3.1,5.8-.63-2.59,1.1,1.69,3.07-3.53.9-5.82,1.89-9.75,2.07,2.8,3.36-1.86,4.08-4.5,3.57,0,0,.44,4.86-2.81,3.1l-0.75,2.82c2.94,2.29,1.69,1.69.38,2.57,3.48-.26,2.45.83-3,1.28,1.68,1.37.28,5.74-.94,7.7-2.69,1-.52-3.1-4.31,0,0.13,0.59-.36,5.88-0.37,5.92,0.73,2.51-8.62,6.67-8.62,6.67-1.78,0-8,6.67-9.37,8.45-6,.66-9.51,3.42-7.87,7.21a56.23,56.23,0,0,0-7.12,2.32c1.74,2.24,2.26.59,4.31,0.75-0.06,7.92,11,.56,11.06-2.28,2.57-2.28,4-.68,2.63.25l2.63,0.25c-2.65,3.88-3.61,2.45-5.06,6.42-4.87,1.67-13.31-.27-19.69-1,4.11,3.16.85-.23-0.56,1.53,0.75,0.34-3.79,1.52-8.62,2.32,2.52,3.2,2.16,0,4.5,1.53-2.67.33-4.28,4.57-2.44,5.67-3.26-1.59-17.49-5.18-20.25,1.28,3.06,1.14-7.25,4.69-9,5.39A26.56,26.56,0,0,1,3664,1437c-2-.78-13.85-2.61-16.87-0.78,0.21,3.35,2,1.82,3.38,3.35a59.44,59.44,0,0,0-12.94,1.78,60.67,60.67,0,0,0,18.94,1.53c-8.42,2.58-13.66-.7-21.56,2.07,1.33,2.75,3.22.66,4.31,1.78a2.9,2.9,0,0,0,2.63,3.1c-1.86,0-2.73,1-.56,1.28-1.16.75-3.68,0.78-5.06,1.28a16,16,0,0,0,18.94-.78c3.87,5.38-11,3.43-20.06,5.14,1.35,3.9,3.09,1.77,5.44,2.32-0.15,2.05-2.83,1.37-.37,3.6-1.39-.71-3.44-1-4.69-1.82,3.65,0.77,3.08,6.09,7.31,1-0.14,1,1,3.18-4.87,5.39l0.94,2.85c2.81,0.31,2.28-1.45,4.13-2.32,1.29,6.61,9.3-1.28,15.75-3.6a18.83,18.83,0,0,0-4.69,5.64c-0.19-1-7,2.16-9.37,5.14,1.65,3.67-9.65,8.79-2.62,8.74,2.73,0,7,2.21,5.06,7.46,2.42-1.12-.56,2.11-4.69-1.28-3.21,8.67,13.15,10.88,14.06,15.66,11.82,1.56,29.52-4.54,33.19-17.19,9.59,4.64,12.74-5.5,8.06-10a4.2,4.2,0,0,1,3.56,3.07c0.31-2.44-.82-3.51.94-5.64a13.42,13.42,0,0,0,9.94,14.62q-1.2-3.19-3.56-.75c1.36,6.79.61,8.8,5.81,10l-1.12,2.28c1.51,1,10.88,18.21,13.22,24.73a49.24,49.24,0,0,1,2.75,12.61c0.25,3-4.11,6.85-.21,9.93s8.66,0.26,11.94-.81c6.66-2.17,11.12-7.11,17.69-11.44,6.87-4.53,6.54,1.46,12.38-9.19,3.25-5.93,3.74-13.26,1.5-18.87q1.49,1,3,2c0.56-2.85.6-8.15-3-12.06,1.89-.3,3,0.69,5.06-0.25-1.86-3-3.5-2-6.75-2.32,7.32,1,17.5-5.83,17.63-4.64,3.78-2.66,7.41-4.68,8.81-6.42-10,.62-18.72-3.9-29.44-2.57,6.84-1.71,28,.5,36.19-5.14,0,0-37.83-21.9-19.87-30.82-0.43-5.45.84-8.21-1.12-13.59,8.07,0.82,5.18-3,6.38-7.21,3.6,1.45,5.13,3.14,8.06-.75l-2.62-.53c9.18-5,19.49-6.82,28.13-13.86,9.56-7.79,8.87-16.56,8.25-24.67,3.69-1.4,7.39.44,6.56-5.14,1.5-.42,3.43,1.49,4.88,1.28,1.57-9.46,38.94-5.91,36.75,11.06-11.8-.29-29.11,19-37.87,23.36-4.6,10.15-19.14,11.74-5.81,31.85-1.42,1-3.8,4.81-5.06,7.7,2,8.66,13.24,13.87,20.44,12.31,1,1.74-3.11,4.18,2.63,4.39-0.53,3-1.86,2.65-3.94,4.1,14.28-5.57,33-4.39,43.88-12.84,5.92,2.72,17.53,1.85,24.94-2.07l0.75,3.1-2.62-.78c4.81,6.9,12.81,6,19.5,9.24-7.9-.14-17.28,4.88-24,3.35-1.77,10-59.93-1.08-53.62,13.34-3.93,2.45-1,2,1.31,3.1-2.66,6,1.08,9.52,8.44,6.67-1.9,8.08,2.93,21.52-8.2,23.11-9.7,1.39-9.47-14.29-22.12-10-18.67,6.38-1.11,45.36-15.42,43.6-2.83,1.7-.83,3.87-4.5,4.1-3.29,3.52-22.14,4.51-19.31-.5-19.08-7.92-52.11,14.67-49.5,14.13l0.75,3.07c-10.55-3.83-37.62-1.75-45.75-6.42,1.1-1.1,3-1.19,3.94-2.57l-1.12-2.57c-8.4,1.76-12.6-3.52-17.81-8.2,0-.25,5-0.36-0.94-2.57,2.6-4.08,2.13-9.43,2.63-11.31,1.29-.75,13.1-6.76,13.41-8.08,1.51-6.59-7.52-5.45-8.16-13.75,4.48-1.56,6.61-5.35,6.38-11-8,2-27.78,11.4-25.69,16.94,4-5.92,16.6-7.63,17.06-5.92s-9.29,2.14-10.12,8v-3.85a50,50,0,0,1-11.06,3.6c1.36,8.45,2.7,10.82-.37,17.23,7.38,2.84,5.17,2.82,4.31,7.42,4.33,5.17,5.43,7.08,1.88,11.56,3.93,5.39,7.8,10,13.5,13.38-5.76-6-15.84-8.14-15,3.32-1.48-2,.5-3.56-2.81-4.1l-0.56,3.35c-3.68-7-17.73-5.38-10.5,1.53-8.14-2.65-19.5-3.36-26.62,5.39,4.44,0.79,3.93,10.51,3.19,11.81-2.18-3.89-5.43-5.19-3.94-11.27-1.41.4-2.38,1-3.75-.29-0.89,7.89-5.57,15.2-10.5,19.55,2.2,0.61,3.46-1.38,5.63,1.78-2.55.13-3.84-.61-6.19-1,0.27,0.05,2.08-1.8-1.69.78,3,0.56,3.79,2.31,5.81,4.1-4.16-1-3.55-4.5-8.62-1.53,3.73,0.81,7.11,3.21,10.31,4.1-6.61-3-25.78.17-30.94,5.39-2.8,2.83-5.75,12.8-8.53,16.84-3.52,5.11-13.4-.52-8.16,8.1-12.33,5.67-16.84-4-26.81-3.6a35.14,35.14,0,0,1,4.5,16.94c-12.88-1-22.93-3.25-39.19,2.07l1.13,2.57c1.25-.26,3.48-1.39,4.69-1.28-0.52,2.22-3.6,2.07-3.75,2.57,1.92,0.75,3,.4,3.75,2.82-2-.2-3.38.54-5.25,0.75,2.47,1.16,4.27,1.36,5.81,4.14,6.19-2.19,12.51,2.49,18.56,3.57l-2.44.54c4.78,3.31,6.61,4.11,12.38,5.14-10.44,5.35,13.84,17,8.25,25.15,5.38,3.67,5.67,7.57,7.69,13.38a22.53,22.53,0,0,0-6.56-10.81c-1.68,10.73,1.43,29.39-9.37,35.71-4.86,2.84-27.61-.34-33.94-0.95-10-1-25.64-7-34.78-5.46-8.85,1.5-27,14.13-14.16,19.24-1.33,3.94.24,3.78,1.69,4.89-4.39,6-.93,22.67.56,25.68-4.51,9.08-9.6,22.94-10.87,33.14,4.9,1,5.66-6.34,6.94-5.14s-2.33,7.23-2.44,9.74a38.17,38.17,0,0,1,4.31-2c0.38,0.86,1.45,2,1.13,2.57s-2-.9-2.44-0.54,1.11,15.93-.75,23.65c8.72-1.71,16.64-.42,24.94-4.64,2.17,5.65,5.49,4.75,7.88,5.92-2.54,4.79-1.67,9.07,3.19,12.33,7.79,5.23,4.88-3,10.22-4.5,8.7-2.49,15.8-3.13,25-5,10.75-2.19,12.72-4,20.2-13.09,0.94-1.14,5.75.58,7.17-1,0.93-1.06-.76-5.9.66-7.58,3.22-3.8,5.9-8.68,10.22-11.93-17.57-11.06,9.46-34.32,16.78-39.31,7.66-5.23,16.27-6.21,19.73-15.33,3-7.81,1.07-14.64,6.23-21.91,3.17-2.9,12,1.3,17.81-.25l-1.5,2.07c23.53,17.12,39.38-36.25,62-5.29,5,6.82,4.35,10.86,9.47,17.09,3,3.62,6.44,5.9,10.88,10,9,8.33,25,13.37,28.88,23.36,6.7-.4,16.7,10.77,19.41,19.51,3.24,10.47-9.56,28,2.91,19.78,0.9-.59,10-13.19,9.75-11.82,1.26-8-6.4-10-6.09-14.11,1.31-17.81,16.36-8.91,22-.27,5.59-18.89-35.68-21.67-26.62-34.42-21.68,1-25.07-16.52-35.44-30.28-11.65-15.47-18.19-28.45,5.25-33.39-1.77,5.19-.79,10.62,3.38,15.66,6.18-18.79,12.27,3.27,18.56,9-2.36.86-1.49-3.93-3.75,0.75,8.36,12.07,20.54,11.47,30.38,22.37a11.46,11.46,0,0,0-6.94-2.07c18.36,4.95,26.31,16.34,28.31,30.3,1.77,12.34,4.85,31.15,18.94,37,2-1.7-7,2.16-3.75,1,0.82,2,4,6.34,5.25,8.74,8.29-2.34,17.3-2.15,24,3.6-8.27,1.32-18.61-7.92-23.44,1.8-0.9,1.8,6.84,17.41,8.44,20,3.46-7.64,5.27-.28,6.75,5.92,0.69-1.92,1.94-5.22,2.44-6.71,2.1,2.36,3.27,2.68,5.63,4.14-1.61-5.28-3.07-11.39-4.87-17a20.34,20.34,0,0,1,5.06,4.64c0,0.05,2.73-3.43,3.38-3.35-5.69-8.52-.11-10.24,6.38-2.57,3.63-11-8.07-15.13-15.75-20a51.1,51.1,0,0,1,3.56-8c2,1.52,1.42,2.34,2.81,4.1,0.2-7.74-14.13-18.38-3-24.4,1.85,4.88,3.25,7.58,8.44,10-0.67,3.21-2.8-5.75-2.44-4.64,2.14,1.44,4.31,2,6.56,3.07,0-.39-3.52-2.86-3.56-3.07,2.29,0.34,4.4-.24,8.06,1.28-4.81-3-4.87-4.74-8.06-8.74,14.78-4.78,32.92,7.17,30.38,10.81,3.4-5,8.38-8.6,13.5-11.57,2.35-1.37,13.79-3.37,14.81-4.23,8.4-7.09.81,1.51-3.94-7.85-3-5.88-3.83-11.9-9.37-16.16,2.72-3,10.32-12.88,11.3-15.16,2.31-5.42,1.67-13.38,5.58-19.26l-1.69,1.78a33.56,33.56,0,0,1,3.38-8.74c1.26,4,0,.23-0.56,4.14,9.15-.68,10.17-8.15,7.31-15.41,11.18-1,15.1-20.35,27.38-15.69a19.48,19.48,0,0,0-1.12-9.24c1,6,2.42,9.64,8.63,10-3.73.54-6.57,1.25-11.81,0.25a55.83,55.83,0,0,0,6.56,2.82l-2.25,1c9.26,8.29,34.4,1.88,7.5,14.91,1.52,0.34,10.16,3,11.53,4.74,2.29,3-1.82,10.27,2.44,11.68,5.49,1.82,18.41-8.16,23.06-10.79,2.24-1.27,7.85,4.26,10.08-1.68,2.49-6.63-6.78-2.77-7.55-3.46-2.16-1.94-20.1-6.83-7.12-16.16,0.62,2.76-2.3,3.71-2.25,4.6,9.78-11.43,29.11-14.79,43.69-18.73-4.29.34,5.82,0.81,7.5,0.5-3.11,3-4,4.93-10.12,6.17-1.11.64-1.81,3.52-8.44,2.82,3.11,3.58,5.57,7.16,9.94,10.27-5-1.07-3.06,1.28-5.81,2.82l-0.94-2.82c-4.3,9.69-5.08,14.92-15.75,11.06,6.4,10.27,88,51.75,49.08,69.26-39.86,18-60.85-26-98.39-10.73-12,4.88-14.75,8.53-26.44,10.29-1.37.21-12.08-1.12-12.94-.52-6.33,4.46,1.69,7.61,7.13,8.2-6.53-.07-11.72.32-9.37,4.89-5.93,1.31-12.69.37-16.87-.78l1.5,2.07c-10.45-3.44-20.68,2-21,14.38,3.06-1,7.81.14,10.31-.5-2.3,7-1.32,12.45,1.88,18.23-4.64-2.68-3.41.56-7.5-4.64a47.13,47.13,0,0,0-2.44,6.71c7.08,0.95,12.89,4.42,9.19,10,2.94,3.48,2.31,4.78,6.38,7.46-1.28,1.11-2.88,1-4.12,2.57,4.47-.22,8.67.88,13.31,0-3.31,1.86-6.61,4.68-9.94,6.17,5.8-2.71,5.37,1.34,6.38,1.78,4.07-3.69,7.84-4,12-2.28,1.37,9.31,9.88,9.78,16.5,8.2,0.22-23.59,24.51,1.77,32.53,1.41,9.86-.44,9.59-7.55,17.25-10.28,7-2.5,11.14,6.75,17.72-2.93,1,16.21-2,37.66-8.62,56.38-3,8.46-3.41,20.54-8.44,28.13-5.32,8-17.8,15.12-20.44,10.52-5.62.59-7.87-.17-12.94-1.82,1.68-1.56,1.58-.88,2.81-1.78-5.25-3.6-11.22-3.3-17.44-.5a10.93,10.93,0,0,1,3.56-2.85c-4.15.73-7.14,2.65-7.31,5.42-13.46,3.43-16.24,6.38-31.5,1-9.75-3.44-21.61-5-30.19-7.44,0.69,0.19-12.69-6.45-13.69-7.06-4.19-2.6-10.59-9.27-13.5-10.46-11.5-4.7-29.12-3.85-34.69,10.34-4.42,11.28,7.26,31.58-14.81,27.75-4.33-.75-11.76-9.23-16.78-11.33s-13.14-1.08-17.25-4.23c-11.25-8.61-7.2-19.74-24.28-23.75-11.65-2.73-19.61-1.62-31.27-8,0.26,0.14-13.15-7.5-13.69-9.69-2.53-10.4,5.45-7.59,8.25-16.32,3.36-10.48-3.09-9.92-3.09-17.54,0-7.86,4.71-11.25,5.67-19.06-10.81,10.61-7.38-2.71-11.81-2.82-7.21-.18-10.22,4-16.83,4.69-11.67,1.17-20.86-.28-30.42.95-24.81,3.18-46.57,1.55-71.91,14-7.24,3.56-30.13,25-37.59,9.88-7.56,6.85-26.77,6.77-28.5-8-9.11,2.16-18.88,30.16-28.27,38.31-13.19,11.46-22.88,21-25.27,39.75s0.86,28.38-17.16,42.88c-5.64,4.54-16.92,7.56-21.09,12.07-4.5,4.87-6.91,15.48-10.41,21.31-8.64,14.4-13.34,31.35-24.75,45.46,2,1.76-13.5,38.23-13.5,49.33,0.37-2.07,1-4.13,1.5-6.17a29.59,29.59,0,0,0,6.19,7.7c3.16,8.74-.44,15.87.19,23.61,0.71,8.7,5.39,16.47,4.17,26.46-1.69,13.85-4.66,38.19-16.55,46.74a83.65,83.65,0,0,1,7.88,13.09c1.3-.58,8.91,10.52,16.88,8.74-6.12,2-11.52,2-15.94-.5a29.73,29.73,0,0,0-1.12,12.59c3.31-.58,2.79,1.18,6.19,2-7.63,3-6.05,4.61.75,5.14-1.77,5.63.45,7.12,5.81,4.89-1.42,1.83-2.52,1.53-2.81,4.1,6.37-3.13,7.1-3.4,11.63-1.28-8.47.38-2.15-1.25-5.44,3.85,2.11-.88,2.26-1.35,4.69-0.75-3.41.72-3.4,3-5.44,4.6,1.52,0.21,1.88,1.35,5.25,2.82a29.83,29.83,0,0,0,.75,6.42c1.84-1.84.75-1.62,3.38-3.32,0.65,5,4.31,15.57,12.56,16.94-0.12,3.16.25,4.35-.37,7.21,3.4,2.22,5.94,6.39,8.63,10.77-1.89,2.05-4.75,2.5.19,4.35-4.25,6.71,3.46,16.43,8.81,16.19-1.69,4.39,28.77,34,36.38,41.09,21.9,20.31,25.58,1,49.31-.25l-2.62-.25c4.56-.17,15.25-3.4,19.31-2.32,0.11,1.62.83,2.82,5.25,0a4.26,4.26,0,0,0,4.13,2.57c-4.35,4,14,2.44,18.52.95,8.81-2.93,29.13-16.61,38.72-19.58,9-2.78,36.11,3.4,40.45,6.55,0.39,1.72-2.4,2-.37,4.64a31.36,31.36,0,0,1,3.94-.5c-3.93,2.72-1.49,1.5.19,2-6.28,17.06,10.71,18.14,14.81,18.76a13.47,13.47,0,0,0,.19-6.42c0.61,2,.71,3.76,1.69,5.64,2.74-4.59-1.09.21,2.44-1l-0.19-3.57c4.7,2.11,2.17,1.3,5.44-.53,4.86,4.58,7.16,3.82,8.63-2.82,3.28,2.58,3,2,2.81,5.64,4.32,0.89,6.8,5.47,10.88,10.27a14.23,14.23,0,0,1,3.38-3.32c-3.65,14.18,6.14,31.47-4.12,48.26,1.94,0.8,4.43,2.43,5.44,2.85-3.73,3-.55,1-2.06,6.92q-1.87-2.57-3.75,0c3.24,3.41,2.45,4.38,6.94,6.42l-1.12,2.32c-2.88-1.18-3.42-3.17-5.25-4.89a36.89,36.89,0,0,1-4.12,19.26c-1.27-1.19-1.65-2.42-3.19-3.6,0.83,6.78,3.13,10.25,6.94,11.81,0.88,2.44-.62,2.56,2.81,4.64-4.59.28-4.2-2.46-6.94-5.92,3.15,8.35,5.26,17,13.13,21.58-2-.09-2.83-0.78-4.5-1.78,8.11,10,16.41,20.4,22.59,31.46,5.74,10.26,4.91,31.89,18.66,24.51-18.94,3.26,1.48,28.7,2.72,40.74,0.9,8.79-3.31,14.23-1.22,24.26,1.88,9,6.27,14.75,6.56,24.15,0.56,17.93-12.44,27.21-17.06,43.58-4.75,16.83-8.48,36.41-7.69,53.76,1.45,31.86,27.17,58.61,33.38,89.6,3.15,15.73,2,35.06,4.13,51.63,2.3,17.69,8.24,29.56,17.44,44.88,7.46,12.42,13.6,31.55,19.31,46.81,1.79,4.78,4.35,7.5,4.5,13,0.2,7.32-5.6,8.6-5.34,12.27,0.54,7.85,7.32,15.16,7.41,23.51,1.82-10.31,8.91,6.22,17.06,6.93,2.22,0.19,17.63-5.43,22.41-6.54a209.36,209.36,0,0,1,47.16-5.53c1.24-4.65,24.23-14,31.88-22.1a221.32,221.32,0,0,0,24.56-30.68c15.15-23.51,30.38-47.59,30.38-76.67-16.88-1.21,17.93-19.6,21.84-23,12.23-10.55,8.38-26.21,9.47-42.27l-1.87,1.57c-2.07-15.68-7.69-28.12-9.19-42.91,11.65,4.61,30.39-32.07,40.83-38.84,20.6-13.37,26.77-23.6,33.61-45.91l-2.25,1c-1-15.87-2.17-32.11-2.62-48.3-0.5-17.75-4.24-21.53-9.37-36.63-4.95-14.53-2-30.4-4.31-43.47-2.81-16.22-3.23-21.7,2.44-37.75,2.72-7.7,4.44-14.56,7.88-21.54,3.13-6.36,9.35-12.7,10.13-20.59,8.89-.36,19.3-26.93,25.69-35.71,10-13.77,22.08-22.78,33.8-34.62,22.3-22.54,32.87-54.27,44.3-82.49,4.13-10.21,14.63-49.14,21.28-50.33-2.28-.37-2.24-1.59-3.94.5,0.12-2.42,2.88-20.5,2-21.63-6.7-8.67-7,1.33-13.27,3.15-11.11,3.21-22.3,3.4-32.44,6.28-8.21,2.33-21.82,12.29-30,11.68-13.29-1-16.14-20.26-26.62-18.25,26.11-18.84-29.72-48.28-33.94-64.46-0.83,2.64-.59,2.19-0.37,4.89-9.51-10.26-6.65-25.57-12.19-38.52s-15.15-17.9-18.56-31.32c-3.78-14.84,1.63-28.93-4.87-42.13-3.47-7-27.83-25-13.12-31.85-12.17-9.65-17.59-34.38-22.31-48.55-4.25-12.76-23.14-38.88-16.31-50.33,2.89,13.29,9.35,27.65,19.69,36.21,3.69-9.32,3.6-21.06,9.19-29.53-0.78,4.59-2.92,10.81-2.06,15.48,1.43,7.72,2.28,4.58,4.41,9.56,3.63,8.5,8.53,16.12,12.84,24.29,4.16,7.89,7.47,14.77,11.06,22.7,4.72,10.41,8.43,12.7,14.77,22,11.34,16.71,3.54,36.51,14.11,53.1,3.89,6.1,11.25,10.38,15.47,17.07,5.13,8.12,6.47,18.71,10.59,27.63s10.7,14.22,12.56,24.77,0,17.58,2.06,27.61c4.78,23,2.67,38.29,26.81,27.48,14.72-6.59,31-13.46,44.77-20.88,6.6-3.55,14.27-9.22,22.36-13,3.88-1.84,7.35-2.41,10.69-5.39,5.42-4.83,3-8.53,6.47-12.18,7-7.29,15.58-9.87,24.66-14.39,4.82-2.4,6.49.51,11.3-2.88-0.33.23,5.27-10.57,5.86-11.37,3.55-4.8,17.78-11.12,21.09-17.21s2.51-18.78,8.63-27.47c3.59,6.13,13.72-11.43,15.94-19.26a26.46,26.46,0,0,0-8.91-28.21c-7.82-6.51-17.76-4-24.66-14.7-6.59-10.27-3.92-23.14-4.12-32.6a127.25,127.25,0,0,1-21.19,29c-6,5.92-18.59,12.94-28.22,10.16-15.78-4.55-6.81-10.13-9-22.93-3.63-21.74-10.33-2.5-8.2,10.49-7.05-16-7.32-27.85-15.75-39.9-5.34-7.63-12.25-29.79-20.44-36.4,2.92-6,1.91-2.46,1.5-10.27,7.61,2.8,12.36-.74,14.63-8-0.5,6.25,3.63,7.49,10.13,4.64,11,19.27,28.72,65.33,58.88,60.07,6.42-1.12,11.44-12,18.75-10,10.85,3,3.49,12.42,9.19,19.64,6.53,8.28,30,11.69,39.19,8.86,14.84,12.5,50.69-.14,71.44.25-1.14-3.46-1.65-1-3.56-1,9.22-2.44,14.8,34,22.31,25.43,0.21,2.67.45,4.38,1.69,1a36.24,36.24,0,0,0,1.13,4.89c1.68-1.89,3.66-2.89,5.63-4.39-10.86,11.72,12.35,22.26,20.81,12.34-1.35,9.83-11.68,13.19-18.19,13.09,3.52,6.12,13.22,23.25,20.44,25.16,9.17,2.42,23.4-8.93,16.5-16.67,1.78-5.25,4.14-6.58,8.81-7.46-4.1,5.66-3.27,8.93,4.13,8-6.64,3.76-6.93,34.87-.56,41.59-5.08,1.37-.25,0-2.81,4.64l1.69-1.78c-2.46,27.6,11.11,56.37,18.66,80.76,7.77,25.1,17.32,50.43,23.34,76.16q-0.81-2.95-1.5-5.92c-0.67,6,4.35,28.45,12.94,29,13.25,0.9,5.7-23.44,23.44-18.23-8-3.93-3.57-8.76-1.5-15.69,1.22-4.1,6.15-1.39,6.56-2.55,1.27-3.62.16-8.14,0.94-12.32,1.69-9.06,7.88-34.14,2.63-40.84,6.94-7.79-7.1-32.78,9.56-40.59,6.65,0.42,17.39-13.61,24.75-23.36,8.37-11.1,18.6-25,28.5-34.92-0.49-.73-2.33-1.16,1.88-5.64,5.17,3.25,7.4,1.17,8.81-2.32,11.11-2.59,4.48-14.1,9-21.79,4.2-7.06,17.26-3.81,11.58-16.24,2.72,3.58,3.87,7.61,3.94,13.09l3.19-2c0.5-2.14,16.51-5.67,19.13-1.82,13.9-11.55,3.72-28.79-10.5-34.67,3.24-.6,4.75,4.21,5.44-1.53,4.56,7.23,13.86,21,21.19,18,4.85,11.06,4.32,23.85,9.94,34.42l-0.37-3.35a42.62,42.62,0,0,0,4.88,10.27l0.75-3.07c3,2.72,1.45,3.4.75,5.64,2.39,0,3.28-1.44,3-3.85a17.66,17.66,0,0,0,.94,10c4.36-8,9.09,4,9.19,9.77-2.56,0-2.16-1.89-3.75-2.57,0.24,3.27.41,5.49,2.81,8,2-1.25,1.65-2.58,2.81-4.35,1.37,8.34,5.89,16.16,6.38,24.89,0.52,9.36-3.57,18.32-3.94,27.76,3.57-2.28,5.81,0,5.81,0,1-1.21.14,1.12,3.56,3.32,0.34-1.79,3.74-.93,4.31,1.53,5.09-6,9.21-9.67,9.75-16.94,7.35,6.94,9.85-4.25,8.25-11.81,3.36,6.65,3.93,12.55,10.31,14.63-5.18,14.4,3.36,33.81,4.69,49.08a32.78,32.78,0,0,0,.75-7c2.76,8.61,5.19,35.1,7.13,36.21,0.15,10.09-5.14,18.64-3.19,28.79,1.67-1.44,1.58-2.89,2.63-4.64-3.09,10.56-8.74,25.6-4.12,36,1.6-2.29.79-2.16,3-3.85,4.09,9.78,11.72,18.17,16,29,4.4,11.15,4.8,22.57,7.45,33.47,2.51,10.31,6,23.21,12.28,32s17.06,12.78,22.59,22.22a95.08,95.08,0,0,1,9.38-2.57c-1.62-11.28-8.28-19.39-10.12-29.78-2-11.1,1.74-21.17-2.62-32.35-3-7.73-12.43-17.77-18.28-23-6.39-5.72-18.12-6.21-17.91-18.87,2.37,2.79,1.63,5,2.63,8.2-0.44-12.89-6.45-21.56-7.31-33.64-16.11,7.61-1.29-34.95.23-42.3,0.87-4.19.56-22.89,2-24.48,9.71-10.57,12.17,6.5,11.63,12.84,11.21-4.78,20.44,9.6,25.31,14.38-3.87,16.94,9.44,7.05,6.38,19.8,20.78-4.41,14.67,18.59,14.44,30.57,6.38-1.85,20.15-12,13.31-20.55,2.85,3,3.42,5.31,7.69,4.85a27.61,27.61,0,0,0-4.69-9.49,40.62,40.62,0,0,0,4.69,5.64,13.05,13.05,0,0,0-2.25-4.85c1.93,0.88,1.41,2.59,3.75,1-0.32-2.61-1.39-1.93-3-3.57-0.09.22,3.56-.29,4.31-1.57,0.34,0.43-3-1.84-2.62-1.53,9.34,1.75,17.49-3.75,23.44-10.79,5.13-6.07,8.47-19,9.19-19.78,0.27-2.88-2.5-7.13,1.31-4.35-1.59-13.94-1.06-28.14-6.19-41.59-4.51-11.82-13.34-20.1-20.86-30.31-6.41-8.7-15-19.63-17.39-30.33-3.15-14.31,12.83-21.83,11.63-35.42,9.51,1,13.81-12.31,21-9.24a12.59,12.59,0,0,0,.56-4.64c4.4,3.77,8,5.92,12.56,2.82,2,1.28,2.82,2.87,5.25,3.35-3.42,4.56-4.22,17.68,1.55,19.89s2.59-16,3.7-18.35c0.44,0.77,3.14-.8,4.5-1.28l-1.5,2.07c5.95-1.46,11.1-4.42,12.56-7.46,2.82,0.67,2.53,1,2.63-2.57,4.58,5,3.83,2.09,5.44-1.28,3.6,2,5.79,3.2,8.44-2.82,4.13,1.56,2.82-1.88,1.13-5.67,1.91,2.33,1.91,3.9,4.69,5.39-1.25-6.19.22-10.15,0.94-15.12,1.08,5.86,2.71,7.07,4.88,9.74-0.56.61,2.51,3.94,2.25-.5,0.92-.1,4-2.47,5.44-3.6l0.75,2.82c6.36-2.8,3.43-3.22,9.75-1,1.32-2.72.33-3.2-1.69-4.35,12.32,5.62,17-9.67,24.94-15.66l1.13,2.57c3.72-5.93,5-7.05,2.44-12.09,6.27-.18,11-3.9,14.63-8-0.47-2.18,2-3.75,3-3.85,0.59-1.49,3-3,3.94-2.82,2.4-7.67.59-12.05-5.81-13.09,7.51,2.49,10.75-4.22,5.44-10,3.33,1.27,3.25-.57,5.06-0.78,0.67,1.82-2.49,3.9,1.88,2.57,0-3.67,1.32-6.55,2.06-11,4.56,0.35,6.82-6.91,3.38-12.84,3.64-.33,5.17,3.35,6.38-3.35,2.11,0.12,3.5,1,6.38-.25-1.13-4.35.43-7.29,0.94-10.52a21.87,21.87,0,0,1-3.37-3.35c3.64-.23,2.19-1.62,4.31-3.6,2.21,0.17-2.65,6.44,2.25,2.07,0.16-1.6-.16-3.56,0-5.39-1.22-.08-4.3,1.7-4.87,1.53a54.79,54.79,0,0,0,4.88-5.64c-6.59-9.69-13.36-5.42-22.12-5.92,7.3-3.6,12.13-9.23,20.81-11.31-4.21-17.17-20.75-12.62-26.81-23.86,3.61,6.31,17,8.12,25.69,10.52-0.94-7.76-7.28-10.92-10.59-17.09s-2.65-16.65-6.66-22.6c-3.3-4.89-13.2-8.22-13.78-14.13s10.61-14.56,11.34-18.35l1.88-1.57c3.55-.15,3.83-0.81,7.69-5.39l-2.44-.75c9.91-3.59,20.83-3.69,23.44-13.63-5.84-1.52-12.8-3.53-18.56-3.6-6.92-.08-7.89,2.91-15,3.85-1.79.24-2.26,5.12-7,3.6-5.68-1.81-1.83-7.47-3.47-8.74,0.56,0.43-2.8-6.8-3.56-7.7,0,0-7.18,1.12-8.67-1-11.53-16.08,5.13-14.83,15.23-21.62,10.51-7.06,18.3-23.12,30.56-23.9,13,11-13.18,21.77.38,26.18-3.63,3.57-6.37,8-8.44,10.81,8.29-2,34.69-18.46,38.81-22.61,0.21,3.39,1.15,5.05,2.81,8,13.53-3.2,3.41,12.64,11.63,15.41-6.83,1.45-6.86,3.84-9.37,8.24,2.26,2.08,2.43.57,4.69,1.53a14.48,14.48,0,0,0,1.88,6.42c1.64-1.81,3.51-3.21,5.06-5.14,4.4,1.74,8.91,3.69,11.81,5.92,0.7-1-.83,5.11-0.94,6.92,2,2.19,1.79,1.21,2.63,4.64-4.71-3.17-2.91.28-4.87,1.53-1.68-.57-1-2.58-4.12,1a22.77,22.77,0,0,0,3.75.75c-0.24,6.36,2.95,8.45,4.88,11.06-1.38,3-1.67,4.27-4.69,7.17l2.44,0.78c-4.12,4.8-4.84,9.61-1.5,11.81-1.33,3.3-1.82,4.34-.37,9.24,3.56-3.58,2.14-1.3,4.5-1.78,1.85-1.63,3-3.52,5.06-5.14,0.35,1.85-.68,2.28.19,4.64a11.39,11.39,0,0,0,.56-6.17c0.89-.6,3.17,1.37,4.69,0,4.73-9.09,19.22-.35,19.5-23.36,0.22-18.26-7.17-27.4-15.56-42.66-4.19-7.62-10.56-6.54-5.62-16.16,2.13-4.14,14.67-8.53,18.47-12.84,5.08-5.76,17-26.65,18.66-33.39,6.5-.21,10.4-5.4,14.06-11.31l-0.37,3.35c1,0.18,4.12-1.88,4.31-1.82,9.83,29.1,50.07-25,60.38-37.24,9.48-11.22,14.35-23.73,22.88-35.17,10.4-14,11.27-27.15,18.38-40.34-12.28-18.34,18.42-30.06,1.31-49.3,14.4,2,1-6.65-4.27-10.85-8.25-6.65-8.91-7.65-20.48-9.44,0.12,6.81-1.06,9.29-5.25,13.09a58.67,58.67,0,0,0,3.56-7.7,17.75,17.75,0,0,1-15.75,7.21c2.43-1.9,4.24-4.74,6.75-6.67,0.08,0.17-4.43-.62-4.87-1.28,0-1.32,3.14-3,3-4.1-6.33,1.58-7,3.74-10.87,8.45,0.29-3.63-.64-8.88.75-13.09-38.9-.06,4.2-19.27,16.69-31.07,7.48-7.07,17-14.69,25.36-22.35,11.59-10.66,12.45-24,31.43-26.2,4.4-.5,10-0.12,14.46-0.12,1.81,0,5.45-.38,6.38-0.39,6.87-.11,15.82,1.11,21.45,3.09-2.65-13.59,22.85-4.68,28.64-.25-2.12.42-6,2.7-9.1,2.82,6.36,5.32,26.92.48,34.75-1.28-4.37-4.66-.59-5.72-9.1-4.89,2.14-10.85,13.63-23,21.86-30.05,10.75-9.15,23.53-4.08,32.44-10.79a123.43,123.43,0,0,0-4.34,15.41q2-.23,3.94-0.5c-0.12,1.86-1.51,4-1.09,5.92,10.94-3.85,16.53-18.2,27-16.19-9.71-14.09,9.19-18.29,20.36-12.84-2.41-.67-5-1.25-3,1.53-14.11-6.13-8.91,10.6-11.81,17-3.59,7.88-12.41,12.65-19.62,19.89-13.18,13.24-24.29,36-42.29,38.42,3.64,9.47-5.78,15.54-8.62,24-3.3,9.82-2,20.41-.88,30.44,2.11,19.63,6,39.7,8.28,58.56,10.53-11.83,16.33-20.2,16.15-35.46,2.29-.77,9.73-1.71,12.08-1.28-2.89-15.1,3.89-14.17,11.27-23.36,3.18-4,3.38-2.43,5.74-8.53,1.06-2.74-1.66-7.92,0-11.89,1.77-4.14,10.22-7.52,8.48-4,2.6-5.3,1.38-5.83,2.24-11.18,0.94-5.89,1.39-21.35-5.91-16.57-10.07-8,10.53-38,17.65-39,1.09,1.7,2.69,3.19,3.8,4.89,2.9-4.93,6.91-6.95,11.4-11.06-0.59,3.42.66,8.23,0.41,10.81,11.45-18.37,25-12.17,36-2.32,1.32-9.73,11.8-11.91,14.12-18.23a2.6,2.6,0,0,0,3.67.5c1.24-9.44,27.38-18.2,40.18-24.65a17.8,17.8,0,0,1-1-5.14c1.25,1.44,1.56,1.21,3.53.75,10.33,19.43,28.25-8.33,9-11.81,3.44-5.09,1.49-7.73-1.36-14.13-5.56,1.49-6.5.87-8.14-6.42-4.36,3.15-5.64,1-9.91,3.1,0.39-6.27-7.1-3.6-14.12-1.28,8.1-2.73,16.22-4.72,23.62-2.32-1.63-4.79-3.41-2-6.79-3.1,7,0.65,11,6.23,19.14,4.89l-1.36,1.28c21.52-8.09,10-19.75,17.78-28,5.95-.53,2.24,1.52,7.87-1.28-10,18.59,11.58,11.55,21,15.55,2.89,1.22,17.83,25.73,23.35,14,1.72,5.26,2.26,6.74,8.28,3.1-2.12-2.95-2-1.22-4.62-2.57,2-4.21,0-2.65-1.49-3.35,5.18-1.32,9.51-3.29,5.43-7.17-0.24-2.74,4-3.42-1.36-7.46,4.11,0.67,5.7,3.37,5.43,3.07,3.52-.14,6.71-0.47,9.1-1.53-2.23-1.16-2.6-2.52-4.34-4.1C5684.13,1383.79,5689.17,1375.68,5691.3,1372.59Z" transform="translate(-1521.6 -1085.63)" fill="none" stroke="#000" stroke-miterlimit="10"/>
  <path d="M5025.41,2527.58c-8.42,1.68-11.86,10.74-20.25,13-6.6,1.76-19.53-1-23.43-1.92-6.48-1.58-18.32-9.81-23.44-9.88-8.29-.11-12.88,10.11-18.81,4.13-9.62,10.74-12.57,21.5-10.93,35.5a23.66,23.66,0,0,1-2-4.31c-8.08,8.15-5.48,16.13-9.55,24.8-3.89,8.28-11.56,12.87-10.52,22.52,1.32,12.3,7.68,3.66,10.62,16.86,2.09,9.4-8.61,20.56-6.3,27.89,2.87,9.08,12.68,8.4,17.16,2.9,2.44-3,2.6-24,2.92-29.14,0.44-7.25-1.22-20.64,5.67-23.38,14.3-5.69,3.69,13.58,5,17.8,1.11,3.7,7.79,6.77,8.59,9.39,0.61,2-2.25,11.08-1.09,12.44,9.85,11.63,8.71-6.7,22.09-1.37l-1.57-3,4,0.74c-1.4-5.26-5.9-6.81-7.58-12.43-1.56-5.22.29-10.55-.58-14.5-2.3-10.37-11.45-18.37-13.08-26.51,12.23,5.8,26.34-19.52,34.52-10.94,6.11-7.8.3-11.53-8.29-8.44l2.47,2.14c-3.42-1-21.9-1.51-22.06-1.46-8.92,3.29-6.85,12.68-17.16,8.31-16.38-6.93-8.44-32.82,5.25-35.65C4967.89,2538.83,5024.87,2570.63,5025.41,2527.58Z" transform="translate(-1521.6 -1085.63)" fill="none" stroke="#000" stroke-miterlimit="10"/>
  <path d="M4142.44,2668.16s-0.17,20.17-10.83,27.67c-24.7,2-41.67,25.17-31,56.87-0.52,8.85-16.36,26.87-15.49,37.14,4.11,48.53-1.93,40,2.78,50.12s7,8.37,18.35,10,12.14-8.16,18.1-16.87c4-5.82,12.25-15.46,23.59-27.46s17.69-49.83,20.33-50.77c-0.85-.39,8.33-29.68,10-52.79s12.07-43.2,10-40.17c1.6-17.76-13.33-6.75-17.67-17.94s-15.48-25.15-20.82-23.16S4142.44,2668.16,4142.44,2668.16Z" transform="translate(-1521.6 -1085.63)" fill="none" stroke="#000" stroke-miterlimit="10"/>
</svg>
